<?xml version="1.0" standalone="no"?>
<!DOCTYPE svg PUBLIC "-//W3C//DTD SVG 20010904//EN"
 "http://www.w3.org/TR/2001/REC-SVG-20010904/DTD/svg10.dtd">
<svg version="1.0" xmlns="http://www.w3.org/2000/svg"
 width="384.000000pt" height="384.000000pt" viewBox="0 0 384.000000 384.000000"
 preserveAspectRatio="xMidYMid meet">
<metadata>
Created by potrace 1.11, written by Peter Selinger 2001-2013
</metadata>
<g transform="translate(0.000000,384.000000) scale(0.100000,-0.100000)"
fill="#000000" stroke="none">
<path d="M501 3825 c-177 -39 -346 -171 -429 -335 -75 -151 -72 -67 -72 -1570
0 -1503 -4 -1416 72 -1569 81 -165 254 -299 433 -336 105 -22 2726 -22 2829 0
182 38 350 168 434 335 75 151 72 67 72 1570 0 1503 4 1416 -72 1569 -81 165
-254 299 -433 336 -102 21 -2736 21 -2834 0z m2009 -1607 c0 -889 0 -879 -59
-996 -73 -143 -187 -232 -368 -284 -68 -20 -101 -23 -258 -23 -192 0 -276 15
-378 66 -116 58 -216 173 -257 294 -23 68 -43 223 -38 305 l3 55 220 0 220 0
5 -95 c4 -80 9 -102 32 -141 40 -67 96 -102 173 -107 76 -5 125 10 172 51 77
67 73 18 73 900 l0 787 230 0 230 0 0 -812z"/>
</g>
</svg>
