<svg width="819" height="393" viewBox="0 0 819 393" fill="none" xmlns="http://www.w3.org/2000/svg">
<path d="M628.517 175.231C616.081 168.052 616.081 156.412 628.517 149.233L689.549 113.999C701.985 106.82 722.147 106.82 734.583 113.999L795.615 149.233C808.051 156.412 808.051 168.052 795.615 175.231L734.583 210.465C722.147 217.644 701.985 217.644 689.549 210.465L628.517 175.231Z" fill="url(#paint0_linear)"/>
<path fill-rule="evenodd" clip-rule="evenodd" d="M619.194 162.515C619.317 167.125 622.424 171.714 628.517 175.231L689.549 210.465C701.985 217.644 722.148 217.644 734.584 210.465L795.615 175.231C801.935 171.582 805.043 166.782 804.94 162L804.942 162V208.304C804.911 212.985 801.802 217.66 795.616 221.231L734.584 256.465C722.148 263.644 701.985 263.644 689.55 256.465L628.518 221.231C622.418 217.71 619.31 213.115 619.194 208.5L619.194 162.515Z" fill="url(#paint1_linear)"/>
<path d="M628.517 175.231C616.081 168.052 616.081 156.412 628.517 149.233L689.549 113.999C701.985 106.82 722.147 106.82 734.583 113.999L795.615 149.233C808.051 156.412 808.051 168.052 795.615 175.231L734.583 210.465C722.147 217.644 701.985 217.644 689.549 210.465L628.517 175.231Z" fill="url(#paint2_linear)"/>
<path fill-rule="evenodd" clip-rule="evenodd" d="M619.194 162.515C619.317 167.125 622.424 171.714 628.517 175.231L689.549 210.465C701.985 217.644 722.148 217.644 734.584 210.465L795.615 175.231C801.935 171.582 805.043 166.782 804.94 162L804.942 162V208.304C804.911 212.985 801.802 217.66 795.616 221.231L734.584 256.465C722.148 263.644 701.985 263.644 689.55 256.465L628.518 221.231C622.418 217.71 619.31 213.115 619.194 208.5L619.194 162.515Z" fill="url(#paint3_linear)"/>
<path d="M472.553 355.494C467.277 352.448 467.277 347.509 472.553 344.463L498.447 329.515C503.723 326.469 512.277 326.469 517.553 329.515L543.447 344.463C548.723 347.509 548.723 352.448 543.447 355.494L517.553 370.442C512.277 373.488 503.723 373.488 498.447 370.442L472.553 355.494Z" fill="url(#paint4_linear)"/>
<path fill-rule="evenodd" clip-rule="evenodd" d="M468.598 350.099C468.65 352.055 469.968 354.001 472.553 355.494L498.447 370.442C503.723 373.488 512.277 373.488 517.553 370.442L543.447 355.494C546.128 353.946 547.447 351.909 547.403 349.88L547.404 349.88V369.525C547.39 371.511 546.071 373.495 543.447 375.01L517.553 389.958C512.277 393.004 503.723 393.004 498.447 389.958L472.553 375.01C469.965 373.516 468.647 371.566 468.598 369.608L468.598 350.099Z" fill="url(#paint5_linear)"/>
<path d="M109.101 290.892C102.418 287.034 102.418 280.778 109.101 276.92L141.899 257.986C148.582 254.128 159.418 254.128 166.101 257.986L198.899 276.92C205.582 280.779 205.582 287.034 198.899 290.892L166.101 309.826C159.418 313.685 148.582 313.685 141.899 309.826L109.101 290.892Z" fill="url(#paint6_linear)"/>
<path fill-rule="evenodd" clip-rule="evenodd" d="M104.091 284.058C104.157 286.536 105.827 289.002 109.101 290.892L141.9 309.826C148.583 313.685 159.418 313.685 166.101 309.826L198.9 290.892C202.296 288.931 203.966 286.351 203.911 283.781L203.912 283.781V308.666C203.895 311.181 202.224 313.693 198.9 315.612L166.101 334.547C159.418 338.405 148.583 338.405 141.9 334.547L109.101 315.612C105.823 313.72 104.153 311.251 104.091 308.771L104.091 284.058Z" fill="url(#paint7_linear)"/>
<path d="M179.101 97.8919C172.418 94.0338 172.418 87.7785 179.101 83.9204L211.899 64.9858C218.582 61.1277 229.418 61.1277 236.101 64.9858L268.899 83.9204C275.582 87.7785 275.582 94.0338 268.899 97.8919L236.101 116.826C229.418 120.685 218.582 120.685 211.899 116.826L179.101 97.8919Z" fill="url(#paint8_linear)"/>
<path fill-rule="evenodd" clip-rule="evenodd" d="M174.091 91.0585C174.157 93.5358 175.827 96.0016 179.101 97.8919L211.9 116.826C218.583 120.685 229.418 120.685 236.101 116.826L268.9 97.8919C272.296 95.9311 273.966 93.3512 273.911 90.7815L273.912 90.7815V115.666C273.895 118.181 272.224 120.693 268.9 122.612L236.101 141.547C229.418 145.405 218.583 145.405 211.9 141.547L179.101 122.612C175.823 120.72 174.153 118.251 174.091 115.771L174.091 91.0585Z" fill="url(#paint9_linear)"/>
<path d="M403.101 39.8919C396.418 36.0338 396.418 29.7785 403.101 25.9204L435.899 6.98578C442.582 3.12766 453.418 3.12766 460.101 6.98579L492.899 25.9204C499.582 29.7785 499.582 36.0338 492.899 39.8919L460.101 58.8265C453.418 62.6846 442.582 62.6846 435.899 58.8265L403.101 39.8919Z" fill="url(#paint10_linear)"/>
<path fill-rule="evenodd" clip-rule="evenodd" d="M398.091 33.0585C398.157 35.5358 399.827 38.0016 403.101 39.8919L435.9 58.8265C442.583 62.6846 453.418 62.6846 460.101 58.8265L492.9 39.8919C496.296 37.9311 497.966 35.3512 497.911 32.7815L497.912 32.7815V57.6656C497.895 60.1809 496.224 62.6932 492.9 64.6124L460.101 83.5469C453.418 87.4051 442.583 87.4051 435.9 83.5469L403.101 64.6123C399.823 62.7199 398.153 60.2508 398.091 57.7707L398.091 33.0585Z" fill="url(#paint11_linear)"/>
<path d="M228.794 248.67C204.055 234.388 204.055 211.233 228.794 196.951L350.206 126.86C374.945 112.578 415.055 112.578 439.794 126.86L561.206 196.951C585.945 211.233 585.945 234.388 561.206 248.67L439.794 318.761C415.055 333.043 374.945 333.043 350.206 318.761L228.794 248.67Z" fill="url(#paint12_linear)"/>
<path fill-rule="evenodd" clip-rule="evenodd" d="M210.247 223.374C210.491 232.545 216.673 241.672 228.794 248.67L350.206 318.761C374.945 333.043 415.055 333.043 439.794 318.761L561.206 248.67C573.779 241.412 579.962 231.861 579.755 222.349L579.76 222.349V242.938C579.697 252.249 573.513 261.549 561.207 268.653L439.795 338.745C415.056 353.027 374.946 353.026 350.207 338.745L228.795 268.653C216.66 261.648 210.478 252.508 210.247 243.327L210.247 223.374Z" fill="url(#paint13_linear)"/>
<rect width="46.1234" height="46.1234" rx="23.0617" transform="matrix(0.866044 -0.499967 0.866044 0.499967 41 71.0602)" fill="url(#paint14_linear)"/>
<path fill-rule="evenodd" clip-rule="evenodd" d="M52.7102 71.5C52.8972 75.5253 55.6514 79.5182 60.9729 82.5903C72.0033 88.9582 89.8873 88.9582 100.918 82.5903C106.239 79.5182 108.993 75.5253 109.18 71.5H109.181V128.5C108.994 132.525 106.239 136.518 100.918 139.59C89.8875 145.958 72.0035 145.958 60.9731 139.59C55.4844 136.422 52.7269 132.273 52.7004 128.121C52.7001 128.08 52.7001 128.04 52.7004 128L52.7004 128L52.7004 71.5H52.7102Z" fill="url(#paint15_linear)"/>
<rect width="39.8363" height="39.8363" rx="19.9181" transform="matrix(0.866044 -0.499967 0.866044 0.499967 253 349.917)" fill="url(#paint16_linear)"/>
<path fill-rule="evenodd" clip-rule="evenodd" d="M263.114 350.296C263.275 353.773 265.654 357.222 270.25 359.875C279.777 365.375 295.223 365.375 304.75 359.875C309.346 357.222 311.725 353.773 311.886 350.296H311.888V376.407C311.727 379.884 309.348 383.332 304.752 385.986C295.225 391.485 279.779 391.485 270.252 385.986C265.511 383.249 263.129 379.666 263.107 376.079C263.106 376.045 263.106 376.01 263.107 375.975L263.107 375.975L263.107 350.296H263.114Z" fill="url(#paint17_linear)"/>
<rect width="34.6403" height="34.6403" rx="17.3201" transform="matrix(0.866044 -0.499967 0.866044 0.499967 594 303.319)" fill="url(#paint18_linear)"/>
<path fill-rule="evenodd" clip-rule="evenodd" d="M602.794 303.649C602.935 306.672 605.003 309.671 609 311.978C617.284 316.761 630.716 316.761 639 311.978C642.997 309.671 645.065 306.672 645.206 303.649L645.207 303.649L645.207 308.354C645.066 311.377 642.998 314.376 639.001 316.683C630.717 321.466 617.286 321.466 609.001 316.683C604.879 314.303 602.808 311.188 602.788 308.069C602.788 308.039 602.788 308.009 602.788 307.979L602.788 307.978L602.788 303.649L602.794 303.649Z" fill="url(#paint19_linear)"/>
<rect width="34.6403" height="34.6403" rx="17.3201" transform="matrix(0.866044 -0.499967 0.866044 0.499967 489 102.319)" fill="url(#paint20_linear)"/>
<path fill-rule="evenodd" clip-rule="evenodd" d="M497.794 102.649C497.935 105.672 500.003 108.671 504 110.978C512.284 115.761 525.716 115.761 534 110.978C537.997 108.671 540.065 105.672 540.206 102.649L540.207 102.649L540.207 107.354C540.066 110.377 537.998 113.376 534.001 115.683C525.717 120.466 512.286 120.466 504.001 115.683C499.879 113.303 497.808 110.188 497.788 107.069C497.788 107.039 497.788 107.009 497.788 106.979L497.788 106.978L497.788 102.649L497.794 102.649Z" fill="url(#paint21_linear)"/>
<rect width="34.6403" height="34.6403" rx="17.3201" transform="matrix(0.866044 -0.499967 0.866044 0.499967 121 196.319)" fill="url(#paint22_linear)"/>
<path fill-rule="evenodd" clip-rule="evenodd" d="M129.794 196.649C129.935 199.672 132.003 202.671 136 204.978C144.284 209.761 157.716 209.761 166 204.978C169.997 202.671 172.065 199.672 172.205 196.649L172.207 196.649L172.207 201.354C172.066 204.377 169.998 207.376 166.001 209.683C157.717 214.466 144.286 214.466 136.001 209.683C131.879 207.303 129.808 204.188 129.788 201.069C129.788 201.039 129.788 201.009 129.788 200.979L129.788 200.978L129.788 196.649L129.794 196.649Z" fill="url(#paint23_linear)"/>
<rect width="34.6403" height="34.6403" rx="17.3201" transform="matrix(0.866044 -0.499967 0.866044 0.499967 124 43.319)" fill="url(#paint24_linear)"/>
<path fill-rule="evenodd" clip-rule="evenodd" d="M132.794 43.6489C132.935 46.6721 135.003 49.6709 139 51.9782C147.284 56.7607 160.716 56.7607 169 51.9782C172.997 49.6709 175.065 46.6721 175.205 43.6489L175.207 43.6489L175.207 48.3539C175.066 51.377 172.998 54.3759 169.001 56.6831C160.717 61.4656 147.286 61.4656 139.001 56.6831C134.879 54.3034 132.808 51.1879 132.788 48.0689C132.788 48.0388 132.788 48.0087 132.788 47.9786L132.788 47.9784L132.788 43.6489L132.794 43.6489Z" fill="url(#paint25_linear)"/>
<rect width="34.6403" height="34.6403" rx="17.3201" transform="matrix(0.866044 -0.499967 0.866044 0.499967 732 303.319)" fill="url(#paint26_linear)"/>
<path fill-rule="evenodd" clip-rule="evenodd" d="M740.794 303.649C740.935 306.672 743.003 309.671 747 311.978C755.284 316.761 768.716 316.761 777 311.978C780.997 309.671 783.065 306.672 783.205 303.649L783.207 303.649L783.207 308.354C783.066 311.377 780.998 314.376 777.001 316.683C768.717 321.466 755.286 321.466 747.001 316.683C742.879 314.303 740.808 311.188 740.788 308.069C740.788 308.039 740.788 308.009 740.788 307.979L740.788 307.978L740.788 303.649L740.794 303.649Z" fill="url(#paint27_linear)"/>
<rect width="34.6403" height="34.6403" rx="17.3201" transform="matrix(0.866044 -0.499967 0.866044 0.499967 594 369.319)" fill="url(#paint28_linear)"/>
<path fill-rule="evenodd" clip-rule="evenodd" d="M602.794 369.649C602.935 372.672 605.003 375.671 609 377.978C617.284 382.761 630.716 382.761 639 377.978C642.997 375.671 645.065 372.672 645.205 369.649L645.207 369.649L645.207 374.354C645.066 377.377 642.998 380.376 639.001 382.683C630.717 387.466 617.286 387.466 609.001 382.683C604.879 380.303 602.808 377.188 602.788 374.069C602.788 374.039 602.788 374.009 602.788 373.979L602.788 373.978L602.788 369.649L602.794 369.649Z" fill="url(#paint29_linear)"/>
<rect width="17.3201" height="17.3201" rx="8.66006" transform="matrix(0.866044 -0.499967 0.866044 0.499967 342 13.6595)" fill="url(#paint30_linear)"/>
<path fill-rule="evenodd" clip-rule="evenodd" d="M346.398 13.8245C346.468 15.336 347.502 16.8355 349.501 17.9891C353.643 20.3803 360.358 20.3803 364.501 17.9891C366.499 16.8355 367.533 15.336 367.603 13.8245H367.604L367.604 66.177C367.534 67.6885 366.499 69.1879 364.501 70.3415C360.359 72.7328 353.643 72.7328 349.501 70.3415C347.44 69.1517 346.404 67.594 346.395 66.0345L346.395 15.9892L346.395 13.8245H346.398Z" fill="url(#paint31_linear)"/>
<rect width="17.3201" height="17.3201" rx="8.66006" transform="matrix(0.866044 -0.499967 0.866044 0.499967 568 38.6595)" fill="url(#paint32_linear)"/>
<path fill-rule="evenodd" clip-rule="evenodd" d="M572.398 38.8245C572.468 40.336 573.502 41.8355 575.501 42.9891C579.643 45.3803 586.358 45.3803 590.501 42.9891C592.499 41.8355 593.533 40.336 593.603 38.8245H593.604L593.604 41.177C593.534 42.6885 592.499 44.1879 590.501 45.3415C586.359 47.7328 579.643 47.7328 575.501 45.3416C573.44 44.1517 572.404 42.594 572.395 41.0345V40.9892L572.395 38.8245H572.398Z" fill="url(#paint33_linear)"/>
<rect width="17.3201" height="17.3201" rx="8.66006" transform="matrix(0.866044 -0.499967 0.866044 0.499967 58 351.66)" fill="url(#paint34_linear)"/>
<path fill-rule="evenodd" clip-rule="evenodd" d="M62.3978 351.824C62.468 353.336 63.5023 354.835 65.5006 355.989C69.6427 358.38 76.3585 358.38 80.5006 355.989C82.4989 354.835 83.5332 353.336 83.6034 351.824H83.6038L83.6038 354.177C83.5336 355.689 82.4994 357.188 80.5011 358.342C76.3589 360.733 69.6432 360.733 65.5011 358.342C63.44 357.152 62.4045 355.594 62.3945 354.034V353.989L62.3945 351.824H62.3978Z" fill="url(#paint35_linear)"/>
<rect width="17.3201" height="17.3201" rx="8.66006" transform="matrix(0.866044 -0.499967 0.866044 0.499967 682 344.66)" fill="url(#paint36_linear)"/>
<path fill-rule="evenodd" clip-rule="evenodd" d="M686.398 344.824C686.468 346.336 687.502 347.835 689.501 348.989C693.643 351.38 700.358 351.38 704.501 348.989C706.499 347.835 707.533 346.336 707.603 344.824H707.604L707.604 347.177C707.534 348.689 706.499 350.188 704.501 351.342C700.359 353.733 693.643 353.733 689.501 351.342C687.44 350.152 686.404 348.594 686.395 347.034V346.989L686.395 344.824H686.398Z" fill="url(#paint37_linear)"/>
<rect width="89.9284" height="30.8901" rx="15.445" transform="matrix(0.866044 -0.499967 0.866044 0.499967 0 210.961)" fill="url(#paint38_linear)"/>
<path fill-rule="evenodd" clip-rule="evenodd" d="M7.85519 211.455C8.05986 214.083 9.90031 216.676 13.3765 218.683C20.7639 222.948 32.7413 222.948 40.1287 218.683L91.2585 189.166C94.9019 187.063 96.7484 184.315 96.798 181.558L97.0852 181.454V232.329C97.0809 235.018 95.3015 237.707 91.7468 239.759L39.6409 269.84C32.523 273.949 20.9827 273.949 13.8649 269.84L12.8887 269.276C9.44234 267.287 7.66465 264.699 7.55567 262.092L7.55566 211.503L7.85519 211.455Z" fill="url(#paint39_linear)"/>
<rect width="157.118" height="53.9693" rx="26" transform="matrix(0.866044 -0.499967 0.866044 0.499967 549 92.5536)" fill="url(#paint40_linear)"/>
<path fill-rule="evenodd" clip-rule="evenodd" d="M562.232 93.4947C562.619 97.8811 565.714 102.203 571.517 105.553L573.223 106.537C585.659 113.717 605.821 113.717 618.257 106.537L709.294 53.982C715.504 50.3967 718.613 45.6991 718.62 41L718.621 40.9999L718.621 59.9999C718.613 64.699 715.504 69.3967 709.294 72.982L618.258 125.537C605.822 132.717 585.659 132.717 573.223 125.537L571.518 124.553C565.496 121.077 562.391 116.555 562.2 112V93.4998L562.232 93.4947Z" fill="url(#paint41_linear)"/>
<defs>
<linearGradient id="paint0_linear" x1="786" y1="157" x2="593.99" y2="40.1238" gradientUnits="userSpaceOnUse">
<stop offset="0.0353437" stop-color="white"/>
<stop offset="1" stop-color="white" stop-opacity="0"/>
</linearGradient>
<linearGradient id="paint1_linear" x1="805" y1="187" x2="619" y2="187" gradientUnits="userSpaceOnUse">
<stop stop-color="white" stop-opacity="0.8"/>
<stop offset="0.408673" stop-color="white" stop-opacity="0.85"/>
<stop offset="0.579054" stop-color="white" stop-opacity="0.3"/>
<stop offset="1" stop-color="white" stop-opacity="0.25"/>
</linearGradient>
<linearGradient id="paint2_linear" x1="786" y1="157" x2="593.99" y2="40.1238" gradientUnits="userSpaceOnUse">
<stop offset="0.0353437" stop-color="white"/>
<stop offset="1" stop-color="white" stop-opacity="0"/>
</linearGradient>
<linearGradient id="paint3_linear" x1="805" y1="187" x2="619" y2="187" gradientUnits="userSpaceOnUse">
<stop stop-color="white" stop-opacity="0.8"/>
<stop offset="0.408673" stop-color="white" stop-opacity="0.85"/>
<stop offset="0.579054" stop-color="white" stop-opacity="0.3"/>
<stop offset="1" stop-color="white" stop-opacity="0.25"/>
</linearGradient>
<linearGradient id="paint4_linear" x1="539.368" y1="347.759" x2="457.905" y2="298.172" gradientUnits="userSpaceOnUse">
<stop offset="0.0353437" stop-color="white"/>
<stop offset="1" stop-color="white" stop-opacity="0"/>
</linearGradient>
<linearGradient id="paint5_linear" x1="547.428" y1="360.487" x2="468.515" y2="360.487" gradientUnits="userSpaceOnUse">
<stop stop-color="white" stop-opacity="0.8"/>
<stop offset="0.408673" stop-color="white" stop-opacity="0.85"/>
<stop offset="0.579054" stop-color="white" stop-opacity="0.3"/>
<stop offset="1" stop-color="white" stop-opacity="0.25"/>
</linearGradient>
<linearGradient id="paint6_linear" x1="193.732" y1="281.094" x2="90.5459" y2="218.285" gradientUnits="userSpaceOnUse">
<stop offset="0.0353437" stop-color="white"/>
<stop offset="1" stop-color="white" stop-opacity="0"/>
</linearGradient>
<linearGradient id="paint7_linear" x1="203.943" y1="297.217" x2="103.986" y2="297.217" gradientUnits="userSpaceOnUse">
<stop stop-color="white" stop-opacity="0.8"/>
<stop offset="0.408673" stop-color="white" stop-opacity="0.85"/>
<stop offset="0.579054" stop-color="white" stop-opacity="0.3"/>
<stop offset="1" stop-color="white" stop-opacity="0.25"/>
</linearGradient>
<linearGradient id="paint8_linear" x1="263.732" y1="88.0945" x2="160.546" y2="25.2851" gradientUnits="userSpaceOnUse">
<stop offset="0.0353437" stop-color="white"/>
<stop offset="1" stop-color="white" stop-opacity="0"/>
</linearGradient>
<linearGradient id="paint9_linear" x1="273.943" y1="104.217" x2="173.986" y2="104.217" gradientUnits="userSpaceOnUse">
<stop stop-color="white" stop-opacity="0.8"/>
<stop offset="0.408673" stop-color="white" stop-opacity="0.85"/>
<stop offset="0.579054" stop-color="white" stop-opacity="0.3"/>
<stop offset="1" stop-color="white" stop-opacity="0.25"/>
</linearGradient>
<linearGradient id="paint10_linear" x1="487.732" y1="30.0945" x2="384.546" y2="-32.7149" gradientUnits="userSpaceOnUse">
<stop offset="0.0353437" stop-color="white"/>
<stop offset="1" stop-color="white" stop-opacity="0"/>
</linearGradient>
<linearGradient id="paint11_linear" x1="497.943" y1="46.2165" x2="397.986" y2="46.2165" gradientUnits="userSpaceOnUse">
<stop stop-color="white" stop-opacity="0.8"/>
<stop offset="0.408673" stop-color="white" stop-opacity="0.85"/>
<stop offset="0.579054" stop-color="white" stop-opacity="0.3"/>
<stop offset="1" stop-color="white" stop-opacity="0.25"/>
</linearGradient>
<linearGradient id="paint12_linear" x1="542.079" y1="212.402" x2="160.109" y2="-20.1027" gradientUnits="userSpaceOnUse">
<stop offset="0.0353437" stop-color="white"/>
<stop offset="1" stop-color="white" stop-opacity="0"/>
</linearGradient>
<linearGradient id="paint13_linear" x1="579.875" y1="272.082" x2="209.86" y2="272.082" gradientUnits="userSpaceOnUse">
<stop stop-color="white" stop-opacity="0.8"/>
<stop offset="0.408673" stop-color="white" stop-opacity="0.85"/>
<stop offset="0.579054" stop-color="white" stop-opacity="0.3"/>
<stop offset="1" stop-color="white" stop-opacity="0.25"/>
</linearGradient>
<linearGradient id="paint14_linear" x1="49.8355" y1="17.713" x2="18.2374" y2="-32.3229" gradientUnits="userSpaceOnUse">
<stop stop-color="white"/>
<stop offset="1" stop-color="white" stop-opacity="0"/>
</linearGradient>
<linearGradient id="paint15_linear" x1="111.5" y1="100.5" x2="40" y2="100.5" gradientUnits="userSpaceOnUse">
<stop stop-color="white"/>
<stop offset="1" stop-color="white" stop-opacity="0"/>
</linearGradient>
<linearGradient id="paint16_linear" x1="43.0424" y1="15.2986" x2="15.7515" y2="-27.917" gradientUnits="userSpaceOnUse">
<stop stop-color="white"/>
<stop offset="1" stop-color="white" stop-opacity="0"/>
</linearGradient>
<linearGradient id="paint17_linear" x1="313.891" y1="366.142" x2="252.137" y2="366.142" gradientUnits="userSpaceOnUse">
<stop stop-color="white"/>
<stop offset="1" stop-color="white" stop-opacity="0"/>
</linearGradient>
<linearGradient id="paint18_linear" x1="37.4282" y1="13.3031" x2="13.6969" y2="-24.2756" gradientUnits="userSpaceOnUse">
<stop stop-color="white"/>
<stop offset="1" stop-color="white" stop-opacity="0"/>
</linearGradient>
<linearGradient id="paint19_linear" x1="646.949" y1="310.264" x2="593.25" y2="310.264" gradientUnits="userSpaceOnUse">
<stop stop-color="white"/>
<stop offset="1" stop-color="white" stop-opacity="0"/>
</linearGradient>
<linearGradient id="paint20_linear" x1="37.4282" y1="13.3031" x2="13.6969" y2="-24.2756" gradientUnits="userSpaceOnUse">
<stop stop-color="white"/>
<stop offset="1" stop-color="white" stop-opacity="0"/>
</linearGradient>
<linearGradient id="paint21_linear" x1="541.949" y1="109.264" x2="488.25" y2="109.264" gradientUnits="userSpaceOnUse">
<stop stop-color="white"/>
<stop offset="1" stop-color="white" stop-opacity="0"/>
</linearGradient>
<linearGradient id="paint22_linear" x1="37.4282" y1="13.3031" x2="13.6969" y2="-24.2756" gradientUnits="userSpaceOnUse">
<stop stop-color="white"/>
<stop offset="1" stop-color="white" stop-opacity="0"/>
</linearGradient>
<linearGradient id="paint23_linear" x1="173.949" y1="203.264" x2="120.25" y2="203.264" gradientUnits="userSpaceOnUse">
<stop stop-color="white"/>
<stop offset="1" stop-color="white" stop-opacity="0"/>
</linearGradient>
<linearGradient id="paint24_linear" x1="37.4282" y1="13.3031" x2="13.6969" y2="-24.2756" gradientUnits="userSpaceOnUse">
<stop stop-color="white"/>
<stop offset="1" stop-color="white" stop-opacity="0"/>
</linearGradient>
<linearGradient id="paint25_linear" x1="176.949" y1="50.2639" x2="123.25" y2="50.2639" gradientUnits="userSpaceOnUse">
<stop stop-color="white"/>
<stop offset="1" stop-color="white" stop-opacity="0"/>
</linearGradient>
<linearGradient id="paint26_linear" x1="37.4282" y1="13.3031" x2="13.6969" y2="-24.2756" gradientUnits="userSpaceOnUse">
<stop stop-color="white"/>
<stop offset="1" stop-color="white" stop-opacity="0"/>
</linearGradient>
<linearGradient id="paint27_linear" x1="784.949" y1="310.264" x2="731.25" y2="310.264" gradientUnits="userSpaceOnUse">
<stop stop-color="white"/>
<stop offset="1" stop-color="white" stop-opacity="0"/>
</linearGradient>
<linearGradient id="paint28_linear" x1="37.4282" y1="13.3031" x2="13.6969" y2="-24.2756" gradientUnits="userSpaceOnUse">
<stop stop-color="white"/>
<stop offset="1" stop-color="white" stop-opacity="0"/>
</linearGradient>
<linearGradient id="paint29_linear" x1="646.949" y1="376.264" x2="593.25" y2="376.264" gradientUnits="userSpaceOnUse">
<stop stop-color="white"/>
<stop offset="1" stop-color="white" stop-opacity="0"/>
</linearGradient>
<linearGradient id="paint30_linear" x1="18.7141" y1="6.65155" x2="6.84847" y2="-12.1378" gradientUnits="userSpaceOnUse">
<stop stop-color="white"/>
<stop offset="1" stop-color="white" stop-opacity="0"/>
</linearGradient>
<linearGradient id="paint31_linear" x1="368.475" y1="37.0314" x2="341.625" y2="37.0314" gradientUnits="userSpaceOnUse">
<stop stop-color="white"/>
<stop offset="1" stop-color="white" stop-opacity="0"/>
</linearGradient>
<linearGradient id="paint32_linear" x1="18.7141" y1="6.65155" x2="6.84847" y2="-12.1378" gradientUnits="userSpaceOnUse">
<stop stop-color="white"/>
<stop offset="1" stop-color="white" stop-opacity="0"/>
</linearGradient>
<linearGradient id="paint33_linear" x1="594.475" y1="42.132" x2="567.625" y2="42.132" gradientUnits="userSpaceOnUse">
<stop stop-color="white"/>
<stop offset="1" stop-color="white" stop-opacity="0"/>
</linearGradient>
<linearGradient id="paint34_linear" x1="18.7141" y1="6.65155" x2="6.84847" y2="-12.1378" gradientUnits="userSpaceOnUse">
<stop stop-color="white"/>
<stop offset="1" stop-color="white" stop-opacity="0"/>
</linearGradient>
<linearGradient id="paint35_linear" x1="84.4749" y1="355.132" x2="57.6254" y2="355.132" gradientUnits="userSpaceOnUse">
<stop stop-color="white"/>
<stop offset="1" stop-color="white" stop-opacity="0"/>
</linearGradient>
<linearGradient id="paint36_linear" x1="18.7141" y1="6.65155" x2="6.84847" y2="-12.1378" gradientUnits="userSpaceOnUse">
<stop stop-color="white"/>
<stop offset="1" stop-color="white" stop-opacity="0"/>
</linearGradient>
<linearGradient id="paint37_linear" x1="708.475" y1="348.132" x2="681.625" y2="348.132" gradientUnits="userSpaceOnUse">
<stop stop-color="white"/>
<stop offset="1" stop-color="white" stop-opacity="0"/>
</linearGradient>
<linearGradient id="paint38_linear" x1="52.0542" y1="62.2805" x2="-41.0851" y2="23.5135" gradientUnits="userSpaceOnUse">
<stop stop-color="white"/>
<stop offset="1" stop-color="white" stop-opacity="0"/>
</linearGradient>
<linearGradient id="paint39_linear" x1="97.3022" y1="205.866" x2="7.43547" y2="205.383" gradientUnits="userSpaceOnUse">
<stop stop-color="white"/>
<stop offset="0.0467296" stop-color="white" stop-opacity="0.8"/>
<stop offset="0.682238" stop-color="white" stop-opacity="0.7"/>
<stop offset="0.827368" stop-color="white" stop-opacity="0.2"/>
<stop offset="1" stop-color="white" stop-opacity="0.1"/>
</linearGradient>
<linearGradient id="paint40_linear" x1="90.9461" y1="108.813" x2="-71.7814" y2="41.0814" gradientUnits="userSpaceOnUse">
<stop stop-color="white"/>
<stop offset="1" stop-color="white" stop-opacity="0"/>
</linearGradient>
<linearGradient id="paint41_linear" x1="719" y1="64.9999" x2="562" y2="63.4999" gradientUnits="userSpaceOnUse">
<stop stop-color="white"/>
<stop offset="0.0467296" stop-color="white" stop-opacity="0.8"/>
<stop offset="0.682238" stop-color="white" stop-opacity="0.7"/>
<stop offset="0.827368" stop-color="white" stop-opacity="0.2"/>
<stop offset="1" stop-color="white" stop-opacity="0.1"/>
</linearGradient>
</defs>
</svg>
