<svg width="819" height="446" viewBox="0 0 819 446" fill="none" xmlns="http://www.w3.org/2000/svg">
<path d="M628.517 175.231C616.081 168.052 616.081 156.412 628.517 149.233L689.549 113.999C701.985 106.82 722.147 106.82 734.583 113.999L795.615 149.233C808.051 156.412 808.051 168.052 795.615 175.231L734.583 210.465C722.147 217.644 701.985 217.644 689.549 210.465L628.517 175.231Z" fill="url(#paint0_linear)"/>
<path fill-rule="evenodd" clip-rule="evenodd" d="M619.194 162.515C619.317 167.125 622.424 171.714 628.517 175.231L689.549 210.465C701.985 217.644 722.148 217.644 734.584 210.465L795.615 175.231C801.935 171.582 805.043 166.782 804.94 162L804.942 162V208.304C804.911 212.985 801.802 217.66 795.616 221.231L734.584 256.465C722.148 263.644 701.985 263.644 689.55 256.465L628.518 221.231C622.418 217.71 619.31 213.115 619.194 208.5L619.194 162.515Z" fill="url(#paint1_linear)"/>
<path d="M628.517 175.231C616.081 168.052 616.081 156.412 628.517 149.233L689.549 113.999C701.985 106.82 722.147 106.82 734.583 113.999L795.615 149.233C808.051 156.412 808.051 168.052 795.615 175.231L734.583 210.465C722.147 217.644 701.985 217.644 689.549 210.465L628.517 175.231Z" fill="url(#paint2_linear)"/>
<path fill-rule="evenodd" clip-rule="evenodd" d="M619.194 162.515C619.317 167.125 622.424 171.714 628.517 175.231L689.549 210.465C701.985 217.644 722.148 217.644 734.584 210.465L795.615 175.231C801.935 171.582 805.043 166.782 804.94 162L804.942 162V208.304C804.911 212.985 801.802 217.66 795.616 221.231L734.584 256.465C722.148 263.644 701.985 263.644 689.55 256.465L628.518 221.231C622.418 217.71 619.31 213.115 619.194 208.5L619.194 162.515Z" fill="url(#paint3_linear)"/>
<path d="M245.553 408.494C240.277 405.448 240.277 400.509 245.553 397.463L271.447 382.515C276.723 379.469 285.277 379.469 290.553 382.515L316.447 397.463C321.723 400.509 321.723 405.448 316.447 408.494L290.553 423.442C285.277 426.488 276.723 426.488 271.447 423.442L245.553 408.494Z" fill="url(#paint4_linear)"/>
<path fill-rule="evenodd" clip-rule="evenodd" d="M241.598 403.099C241.65 405.055 242.968 407.001 245.553 408.494L271.447 423.442C276.723 426.488 285.277 426.488 290.553 423.442L316.447 408.494C319.128 406.946 320.447 404.909 320.403 402.88L320.404 402.88V422.525C320.39 424.511 319.071 426.495 316.447 428.01L290.553 442.958C285.277 446.004 276.723 446.004 271.447 442.958L245.553 428.01C242.965 426.516 241.647 424.566 241.598 422.608L241.598 403.099Z" fill="url(#paint5_linear)"/>
<path d="M40.1007 308.892C33.4177 305.034 33.4177 298.778 40.1007 294.92L72.8993 275.986C79.5823 272.128 90.4177 272.128 97.1007 275.986L129.899 294.92C136.582 298.779 136.582 305.034 129.899 308.892L97.1007 327.826C90.4177 331.685 79.5823 331.685 72.8993 327.826L40.1007 308.892Z" fill="url(#paint6_linear)"/>
<path fill-rule="evenodd" clip-rule="evenodd" d="M35.0908 302.058C35.1566 304.536 36.8267 307.002 40.1011 308.892L72.8996 327.826C79.5827 331.685 90.418 331.685 97.1011 327.826L129.9 308.892C133.296 306.931 134.966 304.351 134.911 301.781L134.912 301.781V326.666C134.895 329.181 133.224 331.693 129.9 333.612L97.1013 352.547C90.4183 356.405 79.5829 356.405 72.8998 352.547L40.1013 333.612C36.8232 331.72 35.1531 329.251 35.0908 326.771L35.0908 302.058Z" fill="url(#paint7_linear)"/>
<path d="M179.101 97.8919C172.418 94.0338 172.418 87.7785 179.101 83.9204L211.899 64.9858C218.582 61.1277 229.418 61.1277 236.101 64.9858L268.899 83.9204C275.582 87.7785 275.582 94.0338 268.899 97.8919L236.101 116.826C229.418 120.685 218.582 120.685 211.899 116.826L179.101 97.8919Z" fill="url(#paint8_linear)"/>
<path fill-rule="evenodd" clip-rule="evenodd" d="M174.091 91.0585C174.157 93.5358 175.827 96.0016 179.101 97.8919L211.9 116.826C218.583 120.685 229.418 120.685 236.101 116.826L268.9 97.8919C272.296 95.9311 273.966 93.3512 273.911 90.7815L273.912 90.7815V115.666C273.895 118.181 272.224 120.693 268.9 122.612L236.101 141.547C229.418 145.405 218.583 145.405 211.9 141.547L179.101 122.612C175.823 120.72 174.153 118.251 174.091 115.771L174.091 91.0585Z" fill="url(#paint9_linear)"/>
<path d="M403.101 39.8919C396.418 36.0338 396.418 29.7785 403.101 25.9204L435.899 6.98578C442.582 3.12766 453.418 3.12766 460.101 6.98579L492.899 25.9204C499.582 29.7785 499.582 36.0338 492.899 39.8919L460.101 58.8265C453.418 62.6846 442.582 62.6846 435.899 58.8265L403.101 39.8919Z" fill="url(#paint10_linear)"/>
<path fill-rule="evenodd" clip-rule="evenodd" d="M398.091 33.0585C398.157 35.5358 399.827 38.0016 403.101 39.8919L435.9 58.8265C442.583 62.6846 453.418 62.6846 460.101 58.8265L492.9 39.8919C496.296 37.9311 497.966 35.3512 497.911 32.7815L497.912 32.7815V57.6656C497.895 60.1809 496.224 62.6932 492.9 64.6124L460.101 83.5469C453.418 87.4051 442.583 87.4051 435.9 83.5469L403.101 64.6123C399.823 62.7199 398.153 60.2508 398.091 57.7707L398.091 33.0585Z" fill="url(#paint11_linear)"/>
<path d="M190.101 258.166C162.431 242.192 162.431 216.293 190.101 200.319L325.899 121.923C353.569 105.949 398.431 105.95 426.101 121.924L561.899 200.319C589.569 216.293 589.569 242.192 561.899 258.166L426.101 336.562C398.431 352.536 353.569 352.536 325.899 336.562L190.101 258.166Z" fill="url(#paint12_linear)"/>
<path fill-rule="evenodd" clip-rule="evenodd" d="M169.357 229.874C169.63 240.131 176.544 250.34 190.102 258.166L325.899 336.562C353.569 352.536 398.431 352.536 426.102 336.562L561.899 258.166C575.962 250.048 582.877 239.366 582.646 228.727L582.652 228.727V251.755C582.581 262.17 575.664 272.572 561.9 280.518L426.103 358.913C398.432 374.887 353.57 374.887 325.9 358.913L190.103 280.518C176.53 272.682 169.615 262.459 169.357 252.191L169.357 229.874Z" fill="url(#paint13_linear)"/>
<rect width="46.1234" height="46.1234" rx="23.0617" transform="matrix(0.866044 -0.499967 0.866044 0.499967 41 71.0602)" fill="url(#paint14_linear)"/>
<path fill-rule="evenodd" clip-rule="evenodd" d="M52.7102 71.5C52.8972 75.5253 55.6514 79.5182 60.9728 82.5903C72.0033 88.9582 89.8872 88.9582 100.918 82.5903C106.239 79.5182 108.993 75.5253 109.18 71.5H109.181V128.5C108.994 132.525 106.239 136.518 100.918 139.59C89.8875 145.958 72.0035 145.958 60.9731 139.59C55.4844 136.422 52.7269 132.273 52.7004 128.121C52.7001 128.08 52.7001 128.04 52.7004 128L52.7004 128L52.7004 71.5H52.7102Z" fill="url(#paint15_linear)"/>
<rect width="39.8363" height="39.8363" rx="19.9181" transform="matrix(0.866044 -0.499967 0.866044 0.499967 132 362.917)" fill="url(#paint16_linear)"/>
<path fill-rule="evenodd" clip-rule="evenodd" d="M142.114 363.296C142.275 366.773 144.654 370.222 149.25 372.875C158.777 378.375 174.223 378.375 183.75 372.875C188.346 370.222 190.725 366.773 190.886 363.296L190.888 363.296V389.407C190.727 392.884 188.348 396.332 183.752 398.986C174.225 404.485 158.779 404.485 149.252 398.986C144.511 396.249 142.129 392.666 142.107 389.079C142.106 389.045 142.106 389.01 142.107 388.975L142.107 388.975L142.107 363.296L142.114 363.296Z" fill="url(#paint17_linear)"/>
<rect width="34.6403" height="34.6403" rx="17.3201" transform="matrix(0.866044 -0.499967 0.866044 0.499967 671 328.16)" fill="url(#paint18_linear)"/>
<path fill-rule="evenodd" clip-rule="evenodd" d="M679.794 328.49C679.935 331.513 682.003 334.512 686 336.819C694.284 341.601 707.716 341.601 716 336.819C719.997 334.512 722.065 331.513 722.205 328.49L722.207 328.49L722.207 333.194C722.066 336.218 719.998 339.216 716.001 341.524C707.717 346.306 694.286 346.306 686.001 341.524C681.879 339.144 679.808 336.029 679.788 332.91C679.788 332.879 679.788 332.849 679.788 332.819L679.788 332.819L679.788 328.49L679.794 328.49Z" fill="url(#paint19_linear)"/>
<rect width="34.6403" height="34.6403" rx="17.3201" transform="matrix(0.866044 -0.499967 0.866044 0.499967 489 102.319)" fill="url(#paint20_linear)"/>
<path fill-rule="evenodd" clip-rule="evenodd" d="M497.794 102.649C497.935 105.672 500.003 108.671 504 110.978C512.284 115.761 525.716 115.761 534 110.978C537.997 108.671 540.065 105.672 540.205 102.649L540.207 102.649L540.207 107.354C540.066 110.377 537.998 113.376 534.001 115.683C525.717 120.466 512.286 120.466 504.001 115.683C499.879 113.303 497.808 110.188 497.788 107.069C497.788 107.039 497.788 107.009 497.788 106.979L497.788 106.978L497.788 102.649L497.794 102.649Z" fill="url(#paint21_linear)"/>
<rect width="17.3201" height="17.3201" rx="8.66006" transform="matrix(0.866044 -0.499967 0.866044 0.499967 342 13.6595)" fill="url(#paint22_linear)"/>
<path fill-rule="evenodd" clip-rule="evenodd" d="M346.398 13.8245C346.468 15.336 347.502 16.8355 349.501 17.9891C353.643 20.3803 360.358 20.3803 364.501 17.9891C366.499 16.8355 367.533 15.336 367.603 13.8245H367.604L367.604 66.177C367.534 67.6885 366.499 69.1879 364.501 70.3415C360.359 72.7328 353.643 72.7328 349.501 70.3415C347.44 69.1517 346.404 67.594 346.395 66.0345L346.395 15.9892L346.395 13.8245H346.398Z" fill="url(#paint23_linear)"/>
<rect width="17.3201" height="17.3201" rx="8.66006" transform="matrix(0.866044 -0.499967 0.866044 0.499967 568 38.6595)" fill="url(#paint24_linear)"/>
<path fill-rule="evenodd" clip-rule="evenodd" d="M572.398 38.8245C572.468 40.336 573.502 41.8355 575.501 42.9891C579.643 45.3803 586.358 45.3803 590.501 42.9891C592.499 41.8355 593.533 40.336 593.603 38.8245H593.604L593.604 41.177C593.534 42.6885 592.499 44.1879 590.501 45.3415C586.359 47.7328 579.643 47.7328 575.501 45.3416C573.44 44.1517 572.404 42.594 572.395 41.0345V40.9892L572.395 38.8245H572.398Z" fill="url(#paint25_linear)"/>
<rect width="17.3201" height="17.3201" rx="8.66006" transform="matrix(0.866044 -0.499967 0.866044 0.499967 671 424.66)" fill="url(#paint26_linear)"/>
<path fill-rule="evenodd" clip-rule="evenodd" d="M675.398 424.824C675.468 426.336 676.502 427.835 678.501 428.989C682.643 431.38 689.358 431.38 693.501 428.989C695.499 427.835 696.533 426.336 696.603 424.824H696.604L696.604 427.177C696.534 428.689 695.499 430.188 693.501 431.342C689.359 433.733 682.643 433.733 678.501 431.342C676.44 430.152 675.404 428.594 675.395 427.034V426.989L675.395 424.824H675.398Z" fill="url(#paint27_linear)"/>
<rect width="89.9284" height="30.8901" rx="15.445" transform="matrix(0.866044 -0.499967 0.866044 0.499967 0 210.961)" fill="url(#paint28_linear)"/>
<path fill-rule="evenodd" clip-rule="evenodd" d="M7.85519 211.455C8.05986 214.083 9.90031 216.676 13.3765 218.683C20.7639 222.948 32.7413 222.948 40.1287 218.683L91.2585 189.166C94.9019 187.063 96.7484 184.315 96.798 181.558L97.0852 181.454V232.329C97.0809 235.018 95.3015 237.707 91.7468 239.759L39.6409 269.84C32.523 273.949 20.9827 273.949 13.8649 269.84L12.8887 269.276C9.44234 267.287 7.66465 264.699 7.55567 262.092L7.55566 211.503L7.85519 211.455Z" fill="url(#paint29_linear)"/>
<rect width="157.118" height="53.9693" rx="26" transform="matrix(0.866044 -0.499967 0.866044 0.499967 549 92.5536)" fill="url(#paint30_linear)"/>
<path fill-rule="evenodd" clip-rule="evenodd" d="M562.232 93.4947C562.619 97.881 565.714 102.203 571.517 105.553L573.223 106.537C585.659 113.717 605.821 113.717 618.257 106.537L709.294 53.982C715.504 50.3967 718.613 45.6991 718.62 41L718.621 40.9999L718.621 59.9999C718.613 64.699 715.504 69.3967 709.294 72.982L618.258 125.537C605.822 132.717 585.659 132.717 573.223 125.537L571.518 124.553C565.496 121.077 562.391 116.555 562.2 112V93.4998L562.232 93.4947Z" fill="url(#paint31_linear)"/>
<rect width="119.597" height="41.081" rx="20.5405" transform="matrix(0.866044 -0.499967 0.866044 0.499967 498 402.794)" fill="url(#paint32_linear)"/>
<path fill-rule="evenodd" clip-rule="evenodd" d="M508.446 403.451C508.718 406.946 511.166 410.395 515.789 413.064C525.614 418.736 541.542 418.736 551.367 413.064L619.365 373.809C624.21 371.012 626.666 367.357 626.732 363.691L627.114 363.552V378.015C627.108 381.592 624.742 385.168 620.015 387.897L550.718 427.901C541.252 433.366 525.905 433.366 516.439 427.901L515.14 427.152C510.557 424.506 508.193 421.064 508.048 417.597V403.515L508.446 403.451Z" fill="url(#paint33_linear)"/>
<defs>
<linearGradient id="paint0_linear" x1="786" y1="157" x2="593.99" y2="40.1238" gradientUnits="userSpaceOnUse">
<stop offset="0.0353437" stop-color="#F5EDE2"/>
<stop offset="1" stop-color="#F5EDE2" stop-opacity="0"/>
</linearGradient>
<linearGradient id="paint1_linear" x1="805" y1="187" x2="619" y2="187" gradientUnits="userSpaceOnUse">
<stop stop-color="#F5EDE2" stop-opacity="0.8"/>
<stop offset="0.408673" stop-color="#F5EDE2" stop-opacity="0.85"/>
<stop offset="0.579054" stop-color="#F5EDE2" stop-opacity="0.3"/>
<stop offset="1" stop-color="#F5EDE2" stop-opacity="0.25"/>
</linearGradient>
<linearGradient id="paint2_linear" x1="786" y1="157" x2="593.99" y2="40.1238" gradientUnits="userSpaceOnUse">
<stop offset="0.0353437" stop-color="#F5EDE2"/>
<stop offset="1" stop-color="#F5EDE2" stop-opacity="0"/>
</linearGradient>
<linearGradient id="paint3_linear" x1="805" y1="187" x2="619" y2="187" gradientUnits="userSpaceOnUse">
<stop stop-color="#F5EDE2" stop-opacity="0.8"/>
<stop offset="0.408673" stop-color="#F5EDE2" stop-opacity="0.85"/>
<stop offset="0.579054" stop-color="#F5EDE2" stop-opacity="0.3"/>
<stop offset="1" stop-color="#F5EDE2" stop-opacity="0.25"/>
</linearGradient>
<linearGradient id="paint4_linear" x1="312.368" y1="400.759" x2="230.905" y2="351.172" gradientUnits="userSpaceOnUse">
<stop offset="0.0353437" stop-color="#F5EDE2"/>
<stop offset="1" stop-color="#F5EDE2" stop-opacity="0"/>
</linearGradient>
<linearGradient id="paint5_linear" x1="320.428" y1="413.487" x2="241.515" y2="413.487" gradientUnits="userSpaceOnUse">
<stop stop-color="#F5EDE2" stop-opacity="0.8"/>
<stop offset="0.408673" stop-color="#F5EDE2" stop-opacity="0.85"/>
<stop offset="0.579054" stop-color="#F5EDE2" stop-opacity="0.3"/>
<stop offset="1" stop-color="#F5EDE2" stop-opacity="0.25"/>
</linearGradient>
<linearGradient id="paint6_linear" x1="124.732" y1="299.094" x2="21.5459" y2="236.285" gradientUnits="userSpaceOnUse">
<stop offset="0.0353437" stop-color="#F5EDE2"/>
<stop offset="1" stop-color="#F5EDE2" stop-opacity="0"/>
</linearGradient>
<linearGradient id="paint7_linear" x1="134.943" y1="315.217" x2="34.9864" y2="315.217" gradientUnits="userSpaceOnUse">
<stop stop-color="#F5EDE2" stop-opacity="0.8"/>
<stop offset="0.408673" stop-color="#F5EDE2" stop-opacity="0.85"/>
<stop offset="0.579054" stop-color="#F5EDE2" stop-opacity="0.3"/>
<stop offset="1" stop-color="#F5EDE2" stop-opacity="0.25"/>
</linearGradient>
<linearGradient id="paint8_linear" x1="263.732" y1="88.0945" x2="160.546" y2="25.2851" gradientUnits="userSpaceOnUse">
<stop offset="0.0353437" stop-color="#F5EDE2"/>
<stop offset="1" stop-color="#F5EDE2" stop-opacity="0"/>
</linearGradient>
<linearGradient id="paint9_linear" x1="273.943" y1="104.217" x2="173.986" y2="104.217" gradientUnits="userSpaceOnUse">
<stop stop-color="#F5EDE2" stop-opacity="0.8"/>
<stop offset="0.408673" stop-color="#F5EDE2" stop-opacity="0.85"/>
<stop offset="0.579054" stop-color="#F5EDE2" stop-opacity="0.3"/>
<stop offset="1" stop-color="#F5EDE2" stop-opacity="0.25"/>
</linearGradient>
<linearGradient id="paint10_linear" x1="487.732" y1="30.0945" x2="384.546" y2="-32.7149" gradientUnits="userSpaceOnUse">
<stop offset="0.0353437" stop-color="#F5EDE2"/>
<stop offset="1" stop-color="#F5EDE2" stop-opacity="0"/>
</linearGradient>
<linearGradient id="paint11_linear" x1="497.943" y1="46.2165" x2="397.986" y2="46.2165" gradientUnits="userSpaceOnUse">
<stop stop-color="#F5EDE2" stop-opacity="0.8"/>
<stop offset="0.408673" stop-color="#F5EDE2" stop-opacity="0.85"/>
<stop offset="0.579054" stop-color="#F5EDE2" stop-opacity="0.3"/>
<stop offset="1" stop-color="#F5EDE2" stop-opacity="0.25"/>
</linearGradient>
<linearGradient id="paint12_linear" x1="540.505" y1="217.602" x2="113.278" y2="-42.4513" gradientUnits="userSpaceOnUse">
<stop offset="0.0353437" stop-color="#F5EDE2"/>
<stop offset="1" stop-color="#F5EDE2" stop-opacity="0"/>
</linearGradient>
<linearGradient id="paint13_linear" x1="582.78" y1="284.352" x2="168.925" y2="284.352" gradientUnits="userSpaceOnUse">
<stop stop-color="#F5EDE2" stop-opacity="0.8"/>
<stop offset="0.408673" stop-color="#F5EDE2" stop-opacity="0.85"/>
<stop offset="0.579054" stop-color="#F5EDE2" stop-opacity="0.3"/>
<stop offset="1" stop-color="#F5EDE2" stop-opacity="0.25"/>
</linearGradient>
<linearGradient id="paint14_linear" x1="49.8355" y1="17.713" x2="18.2374" y2="-32.3229" gradientUnits="userSpaceOnUse">
<stop stop-color="#F5EDE2"/>
<stop offset="1" stop-color="#F5EDE2" stop-opacity="0"/>
</linearGradient>
<linearGradient id="paint15_linear" x1="111.5" y1="100.5" x2="40" y2="100.5" gradientUnits="userSpaceOnUse">
<stop stop-color="#F5EDE2"/>
<stop offset="1" stop-color="#F5EDE2" stop-opacity="0"/>
</linearGradient>
<linearGradient id="paint16_linear" x1="43.0424" y1="15.2986" x2="15.7515" y2="-27.917" gradientUnits="userSpaceOnUse">
<stop stop-color="#F5EDE2"/>
<stop offset="1" stop-color="#F5EDE2" stop-opacity="0"/>
</linearGradient>
<linearGradient id="paint17_linear" x1="192.891" y1="379.142" x2="131.137" y2="379.142" gradientUnits="userSpaceOnUse">
<stop stop-color="#F5EDE2"/>
<stop offset="1" stop-color="#F5EDE2" stop-opacity="0"/>
</linearGradient>
<linearGradient id="paint18_linear" x1="37.4282" y1="13.3031" x2="13.6969" y2="-24.2756" gradientUnits="userSpaceOnUse">
<stop stop-color="#F5EDE2"/>
<stop offset="1" stop-color="#F5EDE2" stop-opacity="0"/>
</linearGradient>
<linearGradient id="paint19_linear" x1="723.949" y1="335.105" x2="670.25" y2="335.105" gradientUnits="userSpaceOnUse">
<stop stop-color="#F5EDE2"/>
<stop offset="1" stop-color="#F5EDE2" stop-opacity="0"/>
</linearGradient>
<linearGradient id="paint20_linear" x1="37.4282" y1="13.3031" x2="13.6969" y2="-24.2756" gradientUnits="userSpaceOnUse">
<stop stop-color="#F5EDE2"/>
<stop offset="1" stop-color="#F5EDE2" stop-opacity="0"/>
</linearGradient>
<linearGradient id="paint21_linear" x1="541.949" y1="109.264" x2="488.25" y2="109.264" gradientUnits="userSpaceOnUse">
<stop stop-color="#F5EDE2"/>
<stop offset="1" stop-color="#F5EDE2" stop-opacity="0"/>
</linearGradient>
<linearGradient id="paint22_linear" x1="18.7141" y1="6.65155" x2="6.84847" y2="-12.1378" gradientUnits="userSpaceOnUse">
<stop stop-color="#F5EDE2"/>
<stop offset="1" stop-color="#F5EDE2" stop-opacity="0"/>
</linearGradient>
<linearGradient id="paint23_linear" x1="368.475" y1="37.0314" x2="341.625" y2="37.0314" gradientUnits="userSpaceOnUse">
<stop stop-color="#F5EDE2"/>
<stop offset="1" stop-color="#F5EDE2" stop-opacity="0"/>
</linearGradient>
<linearGradient id="paint24_linear" x1="18.7141" y1="6.65155" x2="6.84847" y2="-12.1378" gradientUnits="userSpaceOnUse">
<stop stop-color="#F5EDE2"/>
<stop offset="1" stop-color="#F5EDE2" stop-opacity="0"/>
</linearGradient>
<linearGradient id="paint25_linear" x1="594.475" y1="42.132" x2="567.625" y2="42.132" gradientUnits="userSpaceOnUse">
<stop stop-color="#F5EDE2"/>
<stop offset="1" stop-color="#F5EDE2" stop-opacity="0"/>
</linearGradient>
<linearGradient id="paint26_linear" x1="18.7141" y1="6.65155" x2="6.84847" y2="-12.1378" gradientUnits="userSpaceOnUse">
<stop stop-color="#F5EDE2"/>
<stop offset="1" stop-color="#F5EDE2" stop-opacity="0"/>
</linearGradient>
<linearGradient id="paint27_linear" x1="697.475" y1="428.132" x2="670.625" y2="428.132" gradientUnits="userSpaceOnUse">
<stop stop-color="#F5EDE2"/>
<stop offset="1" stop-color="#F5EDE2" stop-opacity="0"/>
</linearGradient>
<linearGradient id="paint28_linear" x1="52.0542" y1="62.2805" x2="-41.0851" y2="23.5135" gradientUnits="userSpaceOnUse">
<stop stop-color="#F5EDE2"/>
<stop offset="1" stop-color="#F5EDE2" stop-opacity="0"/>
</linearGradient>
<linearGradient id="paint29_linear" x1="97.3022" y1="205.866" x2="7.43547" y2="205.383" gradientUnits="userSpaceOnUse">
<stop stop-color="#F5EDE2"/>
<stop offset="0.0467296" stop-color="#F5EDE2" stop-opacity="0.8"/>
<stop offset="0.682238" stop-color="#F5EDE2" stop-opacity="0.7"/>
<stop offset="0.827368" stop-color="#F5EDE2" stop-opacity="0.2"/>
<stop offset="1" stop-color="#F5EDE2" stop-opacity="0.1"/>
</linearGradient>
<linearGradient id="paint30_linear" x1="90.9461" y1="108.813" x2="-71.7814" y2="41.0814" gradientUnits="userSpaceOnUse">
<stop stop-color="#F5EDE2"/>
<stop offset="1" stop-color="#F5EDE2" stop-opacity="0"/>
</linearGradient>
<linearGradient id="paint31_linear" x1="719" y1="64.9999" x2="562" y2="63.4999" gradientUnits="userSpaceOnUse">
<stop stop-color="#F5EDE2"/>
<stop offset="0.0467296" stop-color="#F5EDE2" stop-opacity="0.8"/>
<stop offset="0.682238" stop-color="#F5EDE2" stop-opacity="0.7"/>
<stop offset="0.827368" stop-color="#F5EDE2" stop-opacity="0.2"/>
<stop offset="1" stop-color="#F5EDE2" stop-opacity="0.1"/>
</linearGradient>
<linearGradient id="paint32_linear" x1="69.2274" y1="82.8274" x2="-54.6395" y2="31.2709" gradientUnits="userSpaceOnUse">
<stop stop-color="#F5EDE2"/>
<stop offset="1" stop-color="#F5EDE2" stop-opacity="0"/>
</linearGradient>
<linearGradient id="paint33_linear" x1="627.403" y1="381.821" x2="507.895" y2="380.679" gradientUnits="userSpaceOnUse">
<stop stop-color="#F5EDE2"/>
<stop offset="0.0467296" stop-color="#F5EDE2" stop-opacity="0.8"/>
<stop offset="0.682238" stop-color="#F5EDE2" stop-opacity="0.7"/>
<stop offset="0.827368" stop-color="#F5EDE2" stop-opacity="0.2"/>
<stop offset="1" stop-color="#F5EDE2" stop-opacity="0.1"/>
</linearGradient>
</defs>
</svg>
