<svg width="1047" height="562" viewBox="0 0 1047 562" fill="none" xmlns="http://www.w3.org/2000/svg">
<rect width="15.0386" height="15.0386" rx="7.51931" transform="matrix(-1 -8.74228e-08 -8.74228e-08 1 724.086 103.45)" fill="url(#paint0_linear_682_2427)"/>
<rect width="8.87066" height="8.87066" rx="4.43533" transform="matrix(-1 -8.74228e-08 -8.74228e-08 1 652.079 32.7607)" fill="url(#paint1_linear_682_2427)"/>
<rect width="8.87066" height="8.87066" rx="4.43533" transform="matrix(-1 -8.74228e-08 -8.74228e-08 1 935.7 403.149)" fill="url(#paint2_linear_682_2427)"/>
<rect width="8.87066" height="8.87066" rx="4.43533" transform="matrix(-1 -8.74228e-08 -8.74228e-08 1 1036.1 398.714)" fill="url(#paint3_linear_682_2427)"/>
<rect width="8.87066" height="8.87066" rx="4.43533" transform="matrix(-1 -8.74228e-08 -8.74228e-08 1 989.179 128.115)" fill="url(#paint4_linear_682_2427)"/>
<rect width="15.0386" height="15.0386" rx="7.51931" transform="matrix(-1 -8.74228e-08 -8.74228e-08 1 790.657 37.1963)" fill="url(#paint5_linear_682_2427)"/>
<rect width="7.0562" height="7.0562" rx="3.5281" transform="matrix(-1 -8.74228e-08 -8.74228e-08 1 926.83 314.1)" fill="url(#paint6_linear_682_2427)"/>
<rect width="15.0386" height="15.0386" rx="7.51931" transform="matrix(-1 -8.74228e-08 -8.74228e-08 1 851.241 0.801758)" fill="url(#paint7_linear_682_2427)"/>
<rect width="15.0386" height="15.0386" rx="7.51931" transform="matrix(-1 -8.74228e-08 -8.74228e-08 1 1034.89 69.0508)" fill="url(#paint8_linear_682_2427)"/>
<rect width="15.0386" height="15.0386" rx="7.51931" transform="matrix(-1 -8.74228e-08 -8.74228e-08 1 1046.71 310.108)" fill="url(#paint9_linear_682_2427)"/>
<path fill-rule="evenodd" clip-rule="evenodd" d="M1008.62 210.748C997.821 214.756 986.14 216.945 973.948 216.945C918.913 216.945 874.299 172.331 874.299 117.296C874.299 100.209 878.599 84.1268 886.177 70.0723C848.235 84.154 821.198 120.682 821.198 163.525C821.198 218.56 865.812 263.174 920.847 263.174C958.795 263.174 991.789 241.962 1008.62 210.748Z" fill="url(#paint10_linear_682_2427)"/>
<circle cx="212.828" cy="310.108" r="89.9767" fill="url(#paint11_linear_682_2427)"/>
<rect x="204.31" y="146.562" width="17.0366" height="38.8397" fill="url(#paint12_linear_682_2427)"/>
<rect x="204.31" y="434.813" width="17.0366" height="38.8397" fill="url(#paint13_linear_682_2427)"/>
<rect x="376.374" y="301.59" width="17.0366" height="38.8397" transform="rotate(90 376.374 301.59)" fill="url(#paint14_linear_682_2427)"/>
<rect x="88.1226" y="301.59" width="17.0366" height="38.8397" transform="rotate(90 88.1226 301.59)" fill="url(#paint15_linear_682_2427)"/>
<rect x="334.496" y="419.729" width="17.0366" height="38.8397" transform="rotate(135 334.496 419.729)" fill="url(#paint16_linear_682_2427)"/>
<rect x="130.671" y="215.904" width="17.0366" height="38.8397" transform="rotate(135 130.671 215.904)" fill="url(#paint17_linear_682_2427)"/>
<rect x="103.208" y="431.775" width="17.0366" height="38.8397" transform="rotate(-135 103.208 431.775)" fill="url(#paint18_linear_682_2427)"/>
<rect x="307.032" y="227.951" width="17.0366" height="38.8397" transform="rotate(-135 307.032 227.951)" fill="url(#paint19_linear_682_2427)"/>
<path fill-rule="evenodd" clip-rule="evenodd" d="M473.481 517.015C473.481 517.608 473.493 518.197 473.516 518.783C463.879 520.848 456.653 529.414 456.653 539.667C456.653 551.463 466.216 561.025 478.011 561.025C478.476 561.025 478.938 561.01 479.396 560.981C479.794 561.01 480.195 561.025 480.6 561.025H577.034C585.97 561.025 593.214 553.781 593.214 544.845C593.214 537.451 588.254 531.215 581.48 529.283C581.536 528.653 581.565 528.015 581.565 527.371C581.565 515.575 572.002 506.013 560.207 506.013C559.738 506.013 559.272 506.028 558.81 506.058C553.956 487.414 537.007 473.652 516.844 473.652C492.895 473.652 473.481 493.067 473.481 517.015Z" fill="url(#paint20_linear_682_2427)"/>
<path fill-rule="evenodd" clip-rule="evenodd" d="M10.5505 69.8873C10.5505 70.2259 10.5573 70.563 10.5707 70.8983C5.06164 72.0784 0.931152 76.9752 0.931152 82.8367C0.931152 89.5797 6.39746 95.046 13.1405 95.046C13.4063 95.046 13.6701 95.0376 13.9317 95.0208C14.159 95.0375 14.3886 95.0461 14.6202 95.0461H69.7472C74.8555 95.0461 78.9967 90.9049 78.9967 85.7966C78.9967 81.5697 76.1614 78.005 72.2889 76.9007C72.3209 76.5404 72.3372 76.1757 72.3372 75.8071C72.3372 69.0641 66.8709 63.5978 60.1279 63.5978C59.8597 63.5978 59.5935 63.6065 59.3296 63.6235C56.5547 52.9658 46.8656 45.0986 35.3391 45.0986C21.6487 45.0986 10.5505 56.1969 10.5505 69.8873Z" fill="url(#paint21_linear_682_2427)"/>
<path fill-rule="evenodd" clip-rule="evenodd" d="M53.2092 522.575C53.2092 522.913 53.216 523.25 53.2294 523.586C47.7203 524.766 43.5898 529.663 43.5898 535.524C43.5898 542.267 49.0561 547.734 55.7992 547.734C56.065 547.734 56.3288 547.725 56.5904 547.708C56.8177 547.725 57.0473 547.734 57.2789 547.734H112.406C117.514 547.734 121.655 543.592 121.655 538.484C121.655 534.257 118.82 530.693 114.948 529.588C114.98 529.228 114.996 528.863 114.996 528.495C114.996 521.752 109.53 516.285 102.787 516.285C102.518 516.285 102.252 516.294 101.988 516.311C99.2134 505.653 89.5243 497.786 77.9978 497.786C64.3074 497.786 53.2092 508.884 53.2092 522.575Z" fill="url(#paint22_linear_682_2427)"/>
<path fill-rule="evenodd" clip-rule="evenodd" d="M867.15 477.798C867.109 477.136 867.089 476.467 867.089 475.795C867.089 457.828 881.653 443.264 899.62 443.264C913.368 443.264 925.125 451.793 929.887 463.849C933.633 461.027 938.293 459.354 943.344 459.354C951.493 459.354 958.625 463.708 962.541 470.217C964.007 469.705 965.555 469.366 967.159 469.224C970.15 455.965 982 446.062 996.163 446.062H996.862C1013.28 446.062 1026.59 459.374 1026.59 475.795C1026.59 476.582 1026.56 477.362 1026.5 478.134C1034.03 481.994 1039.19 489.833 1039.19 498.876C1039.19 511.74 1028.76 522.168 1015.9 522.168H877.075C864.211 522.168 853.783 511.74 853.783 498.876C853.783 489.562 859.25 481.525 867.15 477.798Z" fill="url(#paint23_linear_682_2427)"/>
<path fill-rule="evenodd" clip-rule="evenodd" d="M377.318 71.6529C377.277 70.9901 377.257 70.322 377.257 69.649C377.257 51.6827 391.821 37.1182 409.788 37.1182C423.536 37.1182 435.293 45.6474 440.055 57.7032C443.801 54.8816 448.461 53.2089 453.512 53.2089C461.661 53.2089 468.793 57.5629 472.708 64.0713C474.175 63.5598 475.723 63.2208 477.327 63.0787C480.318 49.8193 492.168 39.9165 506.331 39.9165H507.03C523.451 39.9165 536.763 53.2282 536.763 69.649C536.763 70.4365 536.732 71.2169 536.672 71.989C544.202 75.8482 549.355 83.6874 549.355 92.7303C549.355 105.594 538.927 116.022 526.063 116.022H387.243C374.379 116.022 363.951 105.594 363.951 92.7303C363.951 83.4165 369.418 75.3795 377.318 71.6529Z" fill="url(#paint24_linear_682_2427)"/>
<rect x="775.619" y="201.221" width="318.965" height="15.8184" transform="rotate(-180 775.619 201.221)" fill="url(#paint25_linear_682_2427)"/>
<rect x="422.016" y="246.43" width="318.965" height="15.8184" fill="url(#paint26_linear_682_2427)"/>
<rect x="813.678" y="321.156" width="318.965" height="15.8184" transform="rotate(-180 813.678 321.156)" fill="url(#paint27_linear_682_2427)"/>
<rect x="390.082" y="364.246" width="318.965" height="15.8184" fill="url(#paint28_linear_682_2427)"/>
<rect x="848.146" y="447.594" width="318.965" height="15.8184" transform="rotate(-180 848.146 447.594)" fill="url(#paint29_linear_682_2427)"/>
<defs>
<linearGradient id="paint0_linear_682_2427" x1="7.53511" y1="2.76371" x2="7.53511" y2="15.0386" gradientUnits="userSpaceOnUse">
<stop stop-color="white"/>
<stop offset="1" stop-color="white" stop-opacity="0"/>
</linearGradient>
<linearGradient id="paint1_linear_682_2427" x1="4.44465" y1="1.6302" x2="4.44465" y2="8.87066" gradientUnits="userSpaceOnUse">
<stop stop-color="white"/>
<stop offset="1" stop-color="white" stop-opacity="0"/>
</linearGradient>
<linearGradient id="paint2_linear_682_2427" x1="4.44465" y1="1.6302" x2="4.44465" y2="8.87066" gradientUnits="userSpaceOnUse">
<stop stop-color="white"/>
<stop offset="1" stop-color="white" stop-opacity="0"/>
</linearGradient>
<linearGradient id="paint3_linear_682_2427" x1="4.44465" y1="1.6302" x2="4.44465" y2="8.87066" gradientUnits="userSpaceOnUse">
<stop stop-color="white"/>
<stop offset="1" stop-color="white" stop-opacity="0"/>
</linearGradient>
<linearGradient id="paint4_linear_682_2427" x1="4.44465" y1="1.6302" x2="4.44465" y2="8.87066" gradientUnits="userSpaceOnUse">
<stop stop-color="white"/>
<stop offset="1" stop-color="white" stop-opacity="0"/>
</linearGradient>
<linearGradient id="paint5_linear_682_2427" x1="7.53511" y1="2.76371" x2="7.53511" y2="15.0386" gradientUnits="userSpaceOnUse">
<stop stop-color="white"/>
<stop offset="1" stop-color="white" stop-opacity="0"/>
</linearGradient>
<linearGradient id="paint6_linear_682_2427" x1="3.53552" y1="1.29675" x2="3.53552" y2="7.0562" gradientUnits="userSpaceOnUse">
<stop stop-color="white"/>
<stop offset="1" stop-color="white" stop-opacity="0"/>
</linearGradient>
<linearGradient id="paint7_linear_682_2427" x1="7.53511" y1="2.76371" x2="7.53511" y2="15.0386" gradientUnits="userSpaceOnUse">
<stop stop-color="white"/>
<stop offset="1" stop-color="white" stop-opacity="0"/>
</linearGradient>
<linearGradient id="paint8_linear_682_2427" x1="7.53511" y1="2.76371" x2="7.53511" y2="15.0386" gradientUnits="userSpaceOnUse">
<stop stop-color="white"/>
<stop offset="1" stop-color="white" stop-opacity="0"/>
</linearGradient>
<linearGradient id="paint9_linear_682_2427" x1="7.53511" y1="2.76371" x2="7.53511" y2="15.0386" gradientUnits="userSpaceOnUse">
<stop stop-color="white"/>
<stop offset="1" stop-color="white" stop-opacity="0"/>
</linearGradient>
<linearGradient id="paint10_linear_682_2427" x1="915.105" y1="105.559" x2="915.105" y2="263.174" gradientUnits="userSpaceOnUse">
<stop stop-color="white"/>
<stop offset="1" stop-color="white" stop-opacity="0"/>
</linearGradient>
<linearGradient id="paint11_linear_682_2427" x1="213.017" y1="253.202" x2="213.017" y2="400.084" gradientUnits="userSpaceOnUse">
<stop stop-color="white"/>
<stop offset="1" stop-color="white" stop-opacity="0"/>
</linearGradient>
<linearGradient id="paint12_linear_682_2427" x1="212.846" y1="153.7" x2="212.846" y2="185.402" gradientUnits="userSpaceOnUse">
<stop stop-color="white"/>
<stop offset="1" stop-color="white" stop-opacity="0"/>
</linearGradient>
<linearGradient id="paint13_linear_682_2427" x1="212.846" y1="441.951" x2="212.846" y2="473.653" gradientUnits="userSpaceOnUse">
<stop stop-color="white"/>
<stop offset="1" stop-color="white" stop-opacity="0"/>
</linearGradient>
<linearGradient id="paint14_linear_682_2427" x1="384.91" y1="308.728" x2="384.91" y2="340.43" gradientUnits="userSpaceOnUse">
<stop stop-color="white"/>
<stop offset="1" stop-color="white" stop-opacity="0"/>
</linearGradient>
<linearGradient id="paint15_linear_682_2427" x1="96.6588" y1="308.728" x2="96.6588" y2="340.43" gradientUnits="userSpaceOnUse">
<stop stop-color="white"/>
<stop offset="1" stop-color="white" stop-opacity="0"/>
</linearGradient>
<linearGradient id="paint16_linear_682_2427" x1="343.032" y1="426.866" x2="343.032" y2="458.568" gradientUnits="userSpaceOnUse">
<stop stop-color="white"/>
<stop offset="1" stop-color="white" stop-opacity="0"/>
</linearGradient>
<linearGradient id="paint17_linear_682_2427" x1="139.208" y1="223.042" x2="139.208" y2="254.744" gradientUnits="userSpaceOnUse">
<stop stop-color="white"/>
<stop offset="1" stop-color="white" stop-opacity="0"/>
</linearGradient>
<linearGradient id="paint18_linear_682_2427" x1="111.744" y1="438.913" x2="111.744" y2="470.615" gradientUnits="userSpaceOnUse">
<stop stop-color="white"/>
<stop offset="1" stop-color="white" stop-opacity="0"/>
</linearGradient>
<linearGradient id="paint19_linear_682_2427" x1="315.568" y1="235.089" x2="315.568" y2="266.791" gradientUnits="userSpaceOnUse">
<stop stop-color="white"/>
<stop offset="1" stop-color="white" stop-opacity="0"/>
</linearGradient>
<linearGradient id="paint20_linear_682_2427" x1="525.077" y1="489.709" x2="525.077" y2="561.025" gradientUnits="userSpaceOnUse">
<stop stop-color="white"/>
<stop offset="1" stop-color="white" stop-opacity="0"/>
</linearGradient>
<linearGradient id="paint21_linear_682_2427" x1="40.046" y1="54.2777" x2="40.046" y2="95.0459" gradientUnits="userSpaceOnUse">
<stop stop-color="white"/>
<stop offset="1" stop-color="white" stop-opacity="0"/>
</linearGradient>
<linearGradient id="paint22_linear_682_2427" x1="82.7047" y1="506.965" x2="82.7047" y2="547.733" gradientUnits="userSpaceOnUse">
<stop stop-color="white"/>
<stop offset="1" stop-color="white" stop-opacity="0"/>
</linearGradient>
<linearGradient id="paint23_linear_682_2427" x1="946.68" y1="457.764" x2="946.68" y2="522.168" gradientUnits="userSpaceOnUse">
<stop stop-color="white"/>
<stop offset="1" stop-color="white" stop-opacity="0"/>
</linearGradient>
<linearGradient id="paint24_linear_682_2427" x1="456.848" y1="51.6187" x2="456.848" y2="116.022" gradientUnits="userSpaceOnUse">
<stop stop-color="white"/>
<stop offset="1" stop-color="white" stop-opacity="0"/>
</linearGradient>
<linearGradient id="paint25_linear_682_2427" x1="778.693" y1="217.039" x2="1098.13" y2="217.039" gradientUnits="userSpaceOnUse">
<stop stop-color="white"/>
<stop offset="1" stop-color="white" stop-opacity="0"/>
</linearGradient>
<linearGradient id="paint26_linear_682_2427" x1="425.091" y1="262.248" x2="744.524" y2="262.248" gradientUnits="userSpaceOnUse">
<stop stop-color="white"/>
<stop offset="1" stop-color="white" stop-opacity="0"/>
</linearGradient>
<linearGradient id="paint27_linear_682_2427" x1="816.753" y1="336.975" x2="1136.19" y2="336.975" gradientUnits="userSpaceOnUse">
<stop stop-color="white"/>
<stop offset="1" stop-color="white" stop-opacity="0"/>
</linearGradient>
<linearGradient id="paint28_linear_682_2427" x1="393.157" y1="380.064" x2="712.59" y2="380.064" gradientUnits="userSpaceOnUse">
<stop stop-color="white"/>
<stop offset="1" stop-color="white" stop-opacity="0"/>
</linearGradient>
<linearGradient id="paint29_linear_682_2427" x1="851.221" y1="463.412" x2="1170.65" y2="463.412" gradientUnits="userSpaceOnUse">
<stop stop-color="white"/>
<stop offset="1" stop-color="white" stop-opacity="0"/>
</linearGradient>
</defs>
</svg>
