<svg width="907" height="527" viewBox="0 0 907 527" fill="none" xmlns="http://www.w3.org/2000/svg">
<path d="M183.112 248.076C222.451 208.737 240.547 190.642 279.209 151.98C295.355 135.833 295.369 109.64 279.223 93.4935V93.4935C263.076 77.3467 236.897 77.3467 220.75 93.4934L160.416 153.828" stroke="url(#paint0_linear)" stroke-width="2" stroke-linejoin="round"/>
<path d="M735.473 375.717C774.812 336.378 792.907 318.283 831.569 279.621C847.716 263.474 847.73 237.281 831.583 221.134V221.134C815.436 204.988 789.257 204.988 773.111 221.134L712.776 281.469" stroke="url(#paint1_linear)" stroke-width="22" stroke-linejoin="round"/>
<path d="M620 243.19C770.192 92.9975 596.456 266.736 747.221 115.97C763.368 99.8237 763.573 73.4402 747.426 57.2935V57.2935C731.279 41.1467 705.1 41.1468 688.953 57.2935L622.847 123.4" stroke="url(#paint2_linear)" stroke-width="14" stroke-linejoin="round"/>
<path d="M634.051 256.398C784.202 106.247 627.271 263.178 762.272 128.176C785.455 104.994 785.705 67.158 762.522 43.9756V43.9756C739.34 20.7931 701.753 20.793 678.571 43.9755L611.5 111.047" stroke="url(#paint3_linear)" stroke-width="2" stroke-linejoin="round"/>
<path d="M89.7672 67.5C76.4401 80.8271 61.9693 95.2975 46.5302 110.736C24.856 132.41 24.854 167.553 46.528 189.227V189.227C68.2021 210.901 103.343 210.901 125.017 189.227L130.676 183.567" stroke="url(#paint4_linear)" stroke-width="10" stroke-linejoin="round"/>
<path d="M294.132 225.988C254.007 266.113 143.36 376.76 79.5311 440.589C68.0106 452.11 49.3745 452.067 37.854 440.547V440.547C26.3336 429.026 26.3336 410.348 37.854 398.828L134.215 302.466" stroke="url(#paint5_linear)" stroke-width="9" stroke-linejoin="round"/>
<path d="M282.71 214.567C243.98 253.297 133.053 364.224 77.3364 419.941C72.4128 424.864 64.4679 424.826 59.5443 419.903V419.903C54.6208 414.979 54.6208 406.997 59.5443 402.073L146.719 314.898" stroke="url(#paint6_linear)" stroke-width="2" stroke-linejoin="round"/>
<path d="M279.549 325.128C372.194 232.483 407.26 197.416 515.17 89.5069C526.683 77.9939 526.712 59.2988 515.199 47.7857V47.7857C503.686 36.2727 485.02 36.2727 473.507 47.7857L346.213 175.079" stroke="url(#paint7_linear)" stroke-width="8" stroke-linejoin="round"/>
<path d="M571.603 171.898C519.347 224.155 369.176 374.326 281.288 462.214C262.454 481.048 231.936 481.03 213.102 462.196V462.196C194.269 443.362 194.269 412.826 213.102 393.992L269.212 337.883" stroke="url(#paint8_linear)" stroke-width="22" stroke-linejoin="round"/>
<path d="M684.564 299.11C609.234 374.44 576.715 406.959 493.707 489.967C477.225 506.45 450.471 506.481 433.988 489.998V489.998C417.506 473.516 417.506 446.793 433.988 430.31L530.272 334.027" stroke="url(#paint9_linear)" stroke-width="10" stroke-linejoin="round"/>
<path d="M836.798 411.773C815.676 432.895 803.249 445.322 785.792 462.78C766.772 481.8 735.932 481.804 716.912 462.785V462.785C697.893 443.765 697.893 412.929 716.912 393.91L731.301 379.521" stroke="url(#paint10_linear)" stroke-width="10" stroke-linejoin="round"/>
<rect width="31" height="31" rx="15.5" transform="matrix(-1 -8.74228e-08 -8.74228e-08 1 333 183.898)" fill="url(#paint11_linear)"/>
<rect width="31" height="31" rx="15.5" transform="matrix(-1 -8.74228e-08 -8.74228e-08 1 814 236.898)" fill="url(#paint12_linear)"/>
<rect width="4" height="4" rx="2" transform="matrix(-1 -8.74228e-08 -8.74228e-08 1 527 294.898)" fill="url(#paint13_linear)"/>
<rect width="4" height="4" rx="2" transform="matrix(-1 -8.74228e-08 -8.74228e-08 1 544 277.898)" fill="url(#paint14_linear)"/>
<rect width="4" height="4" rx="2" transform="matrix(-1 -8.74228e-08 -8.74228e-08 1 542 326.898)" fill="url(#paint15_linear)"/>
<rect width="4" height="4" rx="2" transform="matrix(-1 -8.74228e-08 -8.74228e-08 1 605 324.898)" fill="url(#paint16_linear)"/>
<rect width="4" height="4" rx="2" transform="matrix(-1 -8.74228e-08 -8.74228e-08 1 615 266.898)" fill="url(#paint17_linear)"/>
<rect width="4" height="4" rx="2" transform="matrix(-1 -8.74228e-08 -8.74228e-08 1 600 312.898)" fill="url(#paint18_linear)"/>
<rect width="4" height="4" rx="2" transform="matrix(-1 -8.74228e-08 -8.74228e-08 1 562 347.898)" fill="url(#paint19_linear)"/>
<rect width="4" height="4" rx="2" transform="matrix(-1 -8.74228e-08 -8.74228e-08 1 566 235.898)" fill="url(#paint20_linear)"/>
<rect width="4" height="4" rx="2" transform="matrix(-1 -8.74228e-08 -8.74228e-08 1 531 268.898)" fill="url(#paint21_linear)"/>
<rect width="4" height="4" rx="2" transform="matrix(-1 -8.74228e-08 -8.74228e-08 1 615 281.898)" fill="url(#paint22_linear)"/>
<rect width="5" height="5" rx="2.5" transform="matrix(-1 -8.74228e-08 -8.74228e-08 1 70 67.8981)" fill="url(#paint23_linear)"/>
<rect width="5" height="5" rx="2.5" transform="matrix(-1 -8.74228e-08 -8.74228e-08 1 123 55.8981)" fill="url(#paint24_linear)"/>
<rect width="5" height="5" rx="2.5" transform="matrix(-1 -8.74228e-08 -8.74228e-08 1 107 84.8981)" fill="url(#paint25_linear)"/>
<rect width="25" height="25" rx="12.5" transform="matrix(-1 -8.74228e-08 -8.74228e-08 1 107 55.8981)" fill="url(#paint26_linear)"/>
<rect width="12" height="12" rx="6" transform="matrix(-1 -8.74228e-08 -8.74228e-08 1 89 87.8981)" fill="url(#paint27_linear)"/>
<rect width="12" height="12" rx="6" transform="matrix(-1 -8.74228e-08 -8.74228e-08 1 91 38.8981)" fill="url(#paint28_linear)"/>
<rect width="49" height="49" rx="24.5" transform="matrix(-1 -8.74228e-08 -8.74228e-08 1 273 403.898)" fill="url(#paint29_linear)"/>
<rect x="126.364" y="141.898" width="69" height="9" transform="rotate(45 126.364 141.898)" fill="url(#paint30_linear)"/>
<path fill-rule="evenodd" clip-rule="evenodd" d="M196.342 265.875L167.364 236.898L156.051 248.212L185.028 277.189L196.342 265.875ZM152.364 251.898L181.342 280.875L170.028 292.189L141.051 263.212L152.364 251.898ZM138.364 265.898L167.341 294.875L156.027 306.189L127.05 277.212L138.364 265.898Z" fill="url(#paint31_linear)"/>
<path d="M597.287 166.471L597.287 117.898" stroke="url(#paint32_linear)" stroke-width="8" stroke-linecap="round"/>
<path d="M573 142.185L621.573 142.185" stroke="url(#paint33_linear)" stroke-width="8" stroke-linecap="round"/>
<path fill-rule="evenodd" clip-rule="evenodd" d="M562.818 254.021C562.62 254.219 562.427 254.42 562.239 254.624C558.326 252.092 553.047 252.54 549.619 255.968C545.675 259.912 545.675 266.306 549.619 270.249C549.775 270.406 549.936 270.556 550.1 270.7C550.222 270.842 550.35 270.98 550.485 271.115L582.725 303.355C585.713 306.342 590.556 306.342 593.544 303.355C596.016 300.883 596.442 297.139 594.823 294.229C595.053 294.037 595.275 293.833 595.491 293.618C599.434 289.674 599.434 283.28 595.491 279.337C595.334 279.18 595.173 279.03 595.009 278.885C599.619 271.029 598.554 260.762 591.813 254.021C583.806 246.014 570.825 246.014 562.818 254.021Z" fill="url(#paint34_linear)"/>
<path fill-rule="evenodd" clip-rule="evenodd" d="M610.643 296.459C610.569 296.534 610.496 296.61 610.425 296.686C608.955 295.735 606.971 295.903 605.683 297.191C604.202 298.673 604.202 301.076 605.683 302.557C605.742 302.616 605.803 302.673 605.864 302.727C605.91 302.78 605.958 302.832 606.009 302.883L618.123 314.997C619.246 316.12 621.066 316.12 622.188 314.997C623.117 314.068 623.278 312.662 622.669 311.568C622.755 311.496 622.839 311.419 622.92 311.338C624.402 309.857 624.402 307.454 622.92 305.972C622.861 305.913 622.801 305.857 622.739 305.803C624.471 302.851 624.071 298.993 621.538 296.459C618.529 293.451 613.652 293.451 610.643 296.459Z" fill="url(#paint35_linear)"/>
<path fill-rule="evenodd" clip-rule="evenodd" d="M549.753 295.979C549.645 296.091 549.539 296.205 549.435 296.32L547.86 294.804C544.795 291.856 539.92 291.95 536.971 295.016C534.023 298.081 534.117 302.956 537.182 305.904L544.157 312.613C544.165 312.621 544.173 312.629 544.181 312.637L585.21 352.105C587.532 354.339 591.226 354.268 593.459 351.945C595.693 349.623 595.621 345.93 593.299 343.697L592.564 342.989C592.678 342.884 592.789 342.776 592.897 342.663C595.846 339.598 595.751 334.723 592.686 331.774L588.833 328.068C592.223 322.012 591.256 314.208 586.02 309.172L571.86 295.55C565.637 289.564 555.74 289.756 549.753 295.979Z" fill="url(#paint36_linear)"/>
<path d="M286.5 386.898L592 81.3981" stroke="url(#paint37_linear)" stroke-width="11" stroke-miterlimit="16" stroke-dasharray="4 4"/>
<rect x="860.673" y="355.898" width="45" height="46.2066" transform="rotate(45 860.673 355.898)" fill="url(#paint38_linear)"/>
<rect x="832.837" y="357.898" width="6.66132" height="6.83993" transform="rotate(45 832.837 357.898)" fill="url(#paint39_linear)"/>
<rect x="889.65" y="410.898" width="3.65085" height="3.74874" transform="rotate(45 889.65 410.898)" fill="url(#paint40_linear)"/>
<rect x="872.65" y="413.898" width="3.65085" height="3.74874" transform="rotate(45 872.65 413.898)" fill="url(#paint41_linear)"/>
<rect x="888.65" y="354.898" width="3.65085" height="3.74874" transform="rotate(45 888.65 354.898)" fill="url(#paint42_linear)"/>
<rect x="867.837" y="336.898" width="6.66132" height="6.83993" transform="rotate(45 867.837 336.898)" fill="url(#paint43_linear)"/>
<rect x="853.759" y="341.977" width="9.30771" height="9.55727" transform="rotate(45 853.759 341.977)" fill="url(#paint44_linear)"/>
<rect x="899.758" y="367.898" width="9.30771" height="9.55727" transform="rotate(45 899.758 367.898)" fill="url(#paint45_linear)"/>
<defs>
<linearGradient id="paint0_linear" x1="264.537" y1="108.056" x2="150.159" y2="222.434" gradientUnits="userSpaceOnUse">
<stop stop-color="#fff"/>
<stop offset="1" stop-color="#fff" stop-opacity="0"/>
</linearGradient>
<linearGradient id="paint1_linear" x1="816.898" y1="235.697" x2="702.519" y2="350.075" gradientUnits="userSpaceOnUse">
<stop stop-color="#fff"/>
<stop offset="1" stop-color="#fff" stop-opacity="0"/>
</linearGradient>
<linearGradient id="paint2_linear" x1="513" y1="291.594" x2="868.696" y2="-64.102" gradientUnits="userSpaceOnUse">
<stop offset="0.241656" stop-color="#fff"/>
<stop offset="0.754568" stop-color="#fff" stop-opacity="0"/>
</linearGradient>
<linearGradient id="paint3_linear" x1="712.787" y1="93.5345" x2="324.477" y2="481.845" gradientUnits="userSpaceOnUse">
<stop stop-color="#fff"/>
<stop offset="1" stop-color="#fff" stop-opacity="0"/>
</linearGradient>
<linearGradient id="paint4_linear" x1="53.9438" y1="181.978" x2="111.285" y2="124.637" gradientUnits="userSpaceOnUse">
<stop stop-color="#fff"/>
<stop offset="1" stop-color="#fff" stop-opacity="0"/>
</linearGradient>
<linearGradient id="paint5_linear" x1="229.965" y1="248.349" x2="37.8102" y2="440.503" gradientUnits="userSpaceOnUse">
<stop stop-color="#fff"/>
<stop offset="1" stop-color="#fff" stop-opacity="0"/>
</linearGradient>
<linearGradient id="paint6_linear" x1="234.403" y1="245.007" x2="59.5256" y2="419.884" gradientUnits="userSpaceOnUse">
<stop offset="0.157487" stop-color="#fff" stop-opacity="0"/>
<stop offset="0.745853" stop-color="#fff"/>
</linearGradient>
<linearGradient id="paint7_linear" x1="237.999" y1="324.898" x2="617" y2="-54.1031" gradientUnits="userSpaceOnUse">
<stop stop-color="#fff"/>
<stop offset="1" stop-color="#fff" stop-opacity="0"/>
</linearGradient>
<linearGradient id="paint8_linear" x1="179" y1="496.155" x2="691" y2="-15.8451" gradientUnits="userSpaceOnUse">
<stop stop-color="#fff"/>
<stop offset="1" stop-color="#fff" stop-opacity="0"/>
</linearGradient>
<linearGradient id="paint9_linear" x1="854.023" y1="69.8376" x2="347.197" y2="576.664" gradientUnits="userSpaceOnUse">
<stop stop-color="#fff"/>
<stop offset="1" stop-color="#fff" stop-opacity="0"/>
</linearGradient>
<linearGradient id="paint10_linear" x1="879.466" y1="300.085" x2="683.265" y2="496.286" gradientUnits="userSpaceOnUse">
<stop stop-color="#fff"/>
<stop offset="1" stop-color="#fff" stop-opacity="0"/>
</linearGradient>
<linearGradient id="paint11_linear" x1="15.5326" y1="5.697" x2="15.5326" y2="31" gradientUnits="userSpaceOnUse">
<stop stop-color="#fff"/>
<stop offset="1" stop-color="#fff" stop-opacity="0"/>
</linearGradient>
<linearGradient id="paint12_linear" x1="15.5326" y1="5.697" x2="15.5326" y2="31" gradientUnits="userSpaceOnUse">
<stop stop-color="#fff"/>
<stop offset="1" stop-color="#fff" stop-opacity="0"/>
</linearGradient>
<linearGradient id="paint13_linear" x1="2.0042" y1="0.735097" x2="2.0042" y2="4" gradientUnits="userSpaceOnUse">
<stop stop-color="#fff"/>
<stop offset="1" stop-color="#fff" stop-opacity="0"/>
</linearGradient>
<linearGradient id="paint14_linear" x1="2.0042" y1="0.735097" x2="2.0042" y2="4" gradientUnits="userSpaceOnUse">
<stop stop-color="#fff"/>
<stop offset="1" stop-color="#fff" stop-opacity="0"/>
</linearGradient>
<linearGradient id="paint15_linear" x1="2.0042" y1="0.735097" x2="2.0042" y2="4" gradientUnits="userSpaceOnUse">
<stop stop-color="#fff"/>
<stop offset="1" stop-color="#fff" stop-opacity="0"/>
</linearGradient>
<linearGradient id="paint16_linear" x1="2.0042" y1="0.735097" x2="2.0042" y2="4" gradientUnits="userSpaceOnUse">
<stop stop-color="#fff"/>
<stop offset="1" stop-color="#fff" stop-opacity="0"/>
</linearGradient>
<linearGradient id="paint17_linear" x1="2.0042" y1="0.735097" x2="2.0042" y2="4" gradientUnits="userSpaceOnUse">
<stop stop-color="#fff"/>
<stop offset="1" stop-color="#fff" stop-opacity="0"/>
</linearGradient>
<linearGradient id="paint18_linear" x1="2.0042" y1="0.735097" x2="2.0042" y2="4" gradientUnits="userSpaceOnUse">
<stop stop-color="#fff"/>
<stop offset="1" stop-color="#fff" stop-opacity="0"/>
</linearGradient>
<linearGradient id="paint19_linear" x1="2.0042" y1="0.735097" x2="2.0042" y2="4" gradientUnits="userSpaceOnUse">
<stop stop-color="#fff"/>
<stop offset="1" stop-color="#fff" stop-opacity="0"/>
</linearGradient>
<linearGradient id="paint20_linear" x1="2.0042" y1="0.735097" x2="2.0042" y2="4" gradientUnits="userSpaceOnUse">
<stop stop-color="#fff"/>
<stop offset="1" stop-color="#fff" stop-opacity="0"/>
</linearGradient>
<linearGradient id="paint21_linear" x1="2.0042" y1="0.735097" x2="2.0042" y2="4" gradientUnits="userSpaceOnUse">
<stop stop-color="#fff"/>
<stop offset="1" stop-color="#fff" stop-opacity="0"/>
</linearGradient>
<linearGradient id="paint22_linear" x1="2.0042" y1="0.735097" x2="2.0042" y2="4" gradientUnits="userSpaceOnUse">
<stop stop-color="#fff"/>
<stop offset="1" stop-color="#fff" stop-opacity="0"/>
</linearGradient>
<linearGradient id="paint23_linear" x1="2.50525" y1="0.918871" x2="2.50525" y2="5" gradientUnits="userSpaceOnUse">
<stop stop-color="#fff"/>
<stop offset="1" stop-color="#fff" stop-opacity="0"/>
</linearGradient>
<linearGradient id="paint24_linear" x1="2.50525" y1="0.918871" x2="2.50525" y2="5" gradientUnits="userSpaceOnUse">
<stop stop-color="#fff"/>
<stop offset="1" stop-color="#fff" stop-opacity="0"/>
</linearGradient>
<linearGradient id="paint25_linear" x1="2.50525" y1="0.918871" x2="2.50525" y2="5" gradientUnits="userSpaceOnUse">
<stop stop-color="#fff"/>
<stop offset="1" stop-color="#fff" stop-opacity="0"/>
</linearGradient>
<linearGradient id="paint26_linear" x1="12.5263" y1="4.59436" x2="12.5263" y2="25" gradientUnits="userSpaceOnUse">
<stop stop-color="#fff"/>
<stop offset="1" stop-color="#fff" stop-opacity="0"/>
</linearGradient>
<linearGradient id="paint27_linear" x1="6.01261" y1="2.20529" x2="6.01261" y2="12" gradientUnits="userSpaceOnUse">
<stop stop-color="#fff"/>
<stop offset="1" stop-color="#fff" stop-opacity="0"/>
</linearGradient>
<linearGradient id="paint28_linear" x1="6.01261" y1="2.20529" x2="6.01261" y2="12" gradientUnits="userSpaceOnUse">
<stop stop-color="#fff"/>
<stop offset="1" stop-color="#fff" stop-opacity="0"/>
</linearGradient>
<linearGradient id="paint29_linear" x1="24.5515" y1="9.00494" x2="24.5515" y2="49" gradientUnits="userSpaceOnUse">
<stop stop-color="#fff"/>
<stop offset="1" stop-color="#fff" stop-opacity="0"/>
</linearGradient>
<linearGradient id="paint30_linear" x1="160.937" y1="143.552" x2="160.937" y2="150.898" gradientUnits="userSpaceOnUse">
<stop stop-color="#fff"/>
<stop offset="1" stop-color="#fff" stop-opacity="0"/>
</linearGradient>
<linearGradient id="paint31_linear" x1="161.769" y1="249.632" x2="161.769" y2="306.189" gradientUnits="userSpaceOnUse">
<stop stop-color="#fff"/>
<stop offset="1" stop-color="#fff" stop-opacity="0"/>
</linearGradient>
<linearGradient id="paint32_linear" x1="596.119" y1="121.163" x2="595.765" y2="173.135" gradientUnits="userSpaceOnUse">
<stop stop-color="#fff"/>
<stop offset="1" stop-color="#fff" stop-opacity="0"/>
</linearGradient>
<linearGradient id="paint33_linear" x1="582.684" y1="128.941" x2="630.414" y2="147.68" gradientUnits="userSpaceOnUse">
<stop stop-color="#fff"/>
<stop offset="1" stop-color="#fff" stop-opacity="0"/>
</linearGradient>
<linearGradient id="paint34_linear" x1="589.197" y1="262.142" x2="565.354" y2="285.985" gradientUnits="userSpaceOnUse">
<stop stop-color="#fff"/>
<stop offset="1" stop-color="#fff" stop-opacity="0"/>
</linearGradient>
<linearGradient id="paint35_linear" x1="620.555" y1="299.511" x2="611.596" y2="308.47" gradientUnits="userSpaceOnUse">
<stop stop-color="#fff"/>
<stop offset="1" stop-color="#fff" stop-opacity="0"/>
</linearGradient>
<linearGradient id="paint36_linear" x1="578.411" y1="309.885" x2="560.584" y2="328.416" gradientUnits="userSpaceOnUse">
<stop stop-color="#fff"/>
<stop offset="1" stop-color="#fff" stop-opacity="0"/>
</linearGradient>
<linearGradient id="paint37_linear" x1="439.571" y1="137.541" x2="439.571" y2="386.898" gradientUnits="userSpaceOnUse">
<stop stop-color="#fff"/>
<stop offset="1" stop-color="#fff" stop-opacity="0"/>
</linearGradient>
<linearGradient id="paint38_linear" x1="883.22" y1="364.39" x2="883.22" y2="402.105" gradientUnits="userSpaceOnUse">
<stop stop-color="#fff"/>
<stop offset="1" stop-color="#fff" stop-opacity="0"/>
</linearGradient>
<linearGradient id="paint39_linear" x1="836.175" y1="359.155" x2="836.175" y2="364.738" gradientUnits="userSpaceOnUse">
<stop stop-color="#fff"/>
<stop offset="1" stop-color="#fff" stop-opacity="0"/>
</linearGradient>
<linearGradient id="paint40_linear" x1="891.48" y1="411.587" x2="891.48" y2="414.647" gradientUnits="userSpaceOnUse">
<stop stop-color="#fff"/>
<stop offset="1" stop-color="#fff" stop-opacity="0"/>
</linearGradient>
<linearGradient id="paint41_linear" x1="874.48" y1="414.587" x2="874.48" y2="417.647" gradientUnits="userSpaceOnUse">
<stop stop-color="#fff"/>
<stop offset="1" stop-color="#fff" stop-opacity="0"/>
</linearGradient>
<linearGradient id="paint42_linear" x1="890.48" y1="355.587" x2="890.48" y2="358.647" gradientUnits="userSpaceOnUse">
<stop stop-color="#fff"/>
<stop offset="1" stop-color="#fff" stop-opacity="0"/>
</linearGradient>
<linearGradient id="paint43_linear" x1="871.175" y1="338.155" x2="871.175" y2="343.738" gradientUnits="userSpaceOnUse">
<stop stop-color="#fff"/>
<stop offset="1" stop-color="#fff" stop-opacity="0"/>
</linearGradient>
<linearGradient id="paint44_linear" x1="858.422" y1="343.733" x2="858.422" y2="351.534" gradientUnits="userSpaceOnUse">
<stop stop-color="#fff"/>
<stop offset="1" stop-color="#fff" stop-opacity="0"/>
</linearGradient>
<linearGradient id="paint45_linear" x1="904.421" y1="369.654" x2="904.421" y2="377.455" gradientUnits="userSpaceOnUse">
<stop stop-color="#fff"/>
<stop offset="1" stop-color="#fff" stop-opacity="0"/>
</linearGradient>
</defs>
</svg>
