<svg width="1344" height="537" viewBox="0 0 1344 537" fill="none" xmlns="http://www.w3.org/2000/svg">
<path fill-rule="evenodd" clip-rule="evenodd" d="M1228.18 90.6889C1228.18 91.2583 1228.19 91.8251 1228.21 92.3889C1218.95 94.3736 1212 102.609 1212 112.467C1212 123.807 1221.19 133 1232.53 133C1232.98 133 1233.42 132.986 1233.86 132.958C1234.25 132.986 1234.63 133 1235.02 133H1327.73C1336.32 133 1343.29 126.036 1343.29 117.445C1343.29 110.336 1338.52 104.341 1332.01 102.484C1332.06 101.878 1332.09 101.264 1332.09 100.645C1332.09 89.3043 1322.9 80.1112 1311.56 80.1112C1311.1 80.1112 1310.66 80.1258 1310.21 80.1544C1305.55 62.2307 1289.25 49 1269.87 49C1246.84 49 1228.18 67.6648 1228.18 90.6889Z" fill="url(#paint0_linear)"/>
<path fill-rule="evenodd" clip-rule="evenodd" d="M17.0046 118.82C17.0046 119.418 17.0166 120.014 17.0403 120.606C7.30166 122.692 0 131.349 0 141.71C0 153.63 9.66303 163.293 21.583 163.293C22.0506 163.293 22.5147 163.278 22.9748 163.249C23.379 163.279 23.7873 163.294 24.1991 163.294H121.65C130.68 163.294 138 155.974 138 146.944C138 139.471 132.988 133.17 126.142 131.218C126.199 130.581 126.228 129.936 126.228 129.284C126.228 117.364 116.565 107.701 104.645 107.701C104.171 107.701 103.7 107.716 103.233 107.747C98.3279 88.9068 81.2003 75 60.8246 75C36.6235 75 17.0046 94.6189 17.0046 118.82Z" fill="url(#paint1_linear)"/>
<rect x="184.836" y="20" width="21.8115" height="22.3963" transform="rotate(45 184.836 20)" fill="url(#paint2_linear)"/>
<rect width="140" height="140" rx="70" transform="matrix(-1 -8.74228e-08 -8.74228e-08 1 926 99)" fill="url(#paint3_linear)"/>
<path d="M784 492.294V483.233H798.233V469H807.363V483.233H821.597V492.294H807.363V506.597H798.233V492.294H784Z" fill="url(#paint4_linear)"/>
<path d="M624 26.6417V16.2789H640.279V0H650.721V16.2789H667V26.6417H650.721V43H640.279V26.6417H624Z" fill="url(#paint5_linear)"/>
<rect x="33.2788" y="371.545" width="8.77253" height="61.4077" fill="url(#paint6_linear)"/>
<rect x="67.1157" y="396.609" width="8.77253" height="36.3433" fill="url(#paint7_linear)"/>
<rect x="100.953" y="396.609" width="8.77253" height="36.3433" fill="url(#paint8_linear)"/>
<rect x="134.79" y="354" width="8.77253" height="78.9528" fill="url(#paint9_linear)"/>
<rect x="44.5581" y="407.889" width="8.77253" height="25.0644" fill="url(#paint10_linear)"/>
<rect x="78.395" y="407.889" width="8.77253" height="25.0644" fill="url(#paint11_linear)"/>
<rect x="112.232" y="407.889" width="8.77253" height="25.0644" fill="url(#paint12_linear)"/>
<rect x="146.069" y="407.889" width="8.77253" height="25.0644" fill="url(#paint13_linear)"/>
<rect x="22" y="404.129" width="8.77253" height="28.824" fill="url(#paint14_linear)"/>
<rect x="55.8369" y="382.824" width="8.77253" height="50.1288" fill="url(#paint15_linear)"/>
<rect x="89.6738" y="382.824" width="8.77253" height="50.1288" fill="url(#paint16_linear)"/>
<rect x="123.511" y="396.609" width="8.77253" height="36.3433" fill="url(#paint17_linear)"/>
<rect width="38.8498" height="38.8498" rx="19.4249" transform="matrix(-1 -8.74228e-08 -8.74228e-08 1 1011.85 3)" fill="url(#paint18_linear)"/>
<rect width="17" height="17" rx="8.5" transform="matrix(-1 -8.74228e-08 -8.74228e-08 1 821 42)" fill="url(#paint19_linear)"/>
<rect width="38.8498" height="38.8498" rx="19.4249" transform="matrix(-1 -8.74228e-08 -8.74228e-08 1 1011.85 459)" fill="url(#paint20_linear)"/>
<rect width="38.8498" height="38.8498" rx="19.4249" transform="matrix(-1 -8.74228e-08 -8.74228e-08 1 262.85 498)" fill="url(#paint21_linear)"/>
<rect width="16" height="16" rx="8" transform="matrix(-1 -8.74228e-08 -8.74228e-08 1 899 305)" fill="url(#paint22_linear)"/>
<defs>
<linearGradient id="paint0_linear" x1="1277.78" y1="64.437" x2="1277.78" y2="133" gradientUnits="userSpaceOnUse">
<stop stop-color="white"/>
<stop offset="1" stop-color="white" stop-opacity="0"/>
</linearGradient>
<linearGradient id="paint1_linear" x1="69.1451" y1="91.2262" x2="69.1451" y2="163.294" gradientUnits="userSpaceOnUse">
<stop stop-color="white"/>
<stop offset="1" stop-color="white" stop-opacity="0"/>
</linearGradient>
<linearGradient id="paint2_linear" x1="195.765" y1="24.1159" x2="195.765" y2="42.3963" gradientUnits="userSpaceOnUse">
<stop stop-color="white"/>
<stop offset="1" stop-color="white" stop-opacity="0"/>
</linearGradient>
<linearGradient id="paint3_linear" x1="70.1471" y1="25.7284" x2="70.1471" y2="140" gradientUnits="userSpaceOnUse">
<stop stop-color="white"/>
<stop offset="1" stop-color="white" stop-opacity="0"/>
</linearGradient>
<linearGradient id="paint4_linear" x1="802.838" y1="475.909" x2="802.838" y2="506.597" gradientUnits="userSpaceOnUse">
<stop stop-color="white"/>
<stop offset="1" stop-color="white" stop-opacity="0"/>
</linearGradient>
<linearGradient id="paint5_linear" x1="645.545" y1="7.90229" x2="645.545" y2="43" gradientUnits="userSpaceOnUse">
<stop stop-color="white"/>
<stop offset="1" stop-color="white" stop-opacity="0"/>
</linearGradient>
<linearGradient id="paint6_linear" x1="37.6743" y1="382.83" x2="37.6743" y2="432.953" gradientUnits="userSpaceOnUse">
<stop stop-color="white"/>
<stop offset="1" stop-color="white" stop-opacity="0"/>
</linearGradient>
<linearGradient id="paint7_linear" x1="71.5112" y1="403.288" x2="71.5112" y2="432.953" gradientUnits="userSpaceOnUse">
<stop stop-color="white"/>
<stop offset="1" stop-color="white" stop-opacity="0"/>
</linearGradient>
<linearGradient id="paint8_linear" x1="105.348" y1="403.288" x2="105.348" y2="432.953" gradientUnits="userSpaceOnUse">
<stop stop-color="white"/>
<stop offset="1" stop-color="white" stop-opacity="0"/>
</linearGradient>
<linearGradient id="paint9_linear" x1="139.185" y1="368.509" x2="139.185" y2="432.953" gradientUnits="userSpaceOnUse">
<stop stop-color="white"/>
<stop offset="1" stop-color="white" stop-opacity="0"/>
</linearGradient>
<linearGradient id="paint10_linear" x1="48.9536" y1="412.495" x2="48.9536" y2="432.953" gradientUnits="userSpaceOnUse">
<stop stop-color="white"/>
<stop offset="1" stop-color="white" stop-opacity="0"/>
</linearGradient>
<linearGradient id="paint11_linear" x1="82.7905" y1="412.495" x2="82.7905" y2="432.953" gradientUnits="userSpaceOnUse">
<stop stop-color="white"/>
<stop offset="1" stop-color="white" stop-opacity="0"/>
</linearGradient>
<linearGradient id="paint12_linear" x1="116.627" y1="412.495" x2="116.627" y2="432.953" gradientUnits="userSpaceOnUse">
<stop stop-color="white"/>
<stop offset="1" stop-color="white" stop-opacity="0"/>
</linearGradient>
<linearGradient id="paint13_linear" x1="150.464" y1="412.495" x2="150.464" y2="432.953" gradientUnits="userSpaceOnUse">
<stop stop-color="white"/>
<stop offset="1" stop-color="white" stop-opacity="0"/>
</linearGradient>
<linearGradient id="paint14_linear" x1="26.3955" y1="409.426" x2="26.3955" y2="432.953" gradientUnits="userSpaceOnUse">
<stop stop-color="white"/>
<stop offset="1" stop-color="white" stop-opacity="0"/>
</linearGradient>
<linearGradient id="paint15_linear" x1="60.2324" y1="392.037" x2="60.2324" y2="432.953" gradientUnits="userSpaceOnUse">
<stop stop-color="white"/>
<stop offset="1" stop-color="white" stop-opacity="0"/>
</linearGradient>
<linearGradient id="paint16_linear" x1="94.0693" y1="392.037" x2="94.0693" y2="432.953" gradientUnits="userSpaceOnUse">
<stop stop-color="white"/>
<stop offset="1" stop-color="white" stop-opacity="0"/>
</linearGradient>
<linearGradient id="paint17_linear" x1="127.906" y1="403.288" x2="127.906" y2="432.953" gradientUnits="userSpaceOnUse">
<stop stop-color="white"/>
<stop offset="1" stop-color="white" stop-opacity="0"/>
</linearGradient>
<linearGradient id="paint18_linear" x1="19.4657" y1="7.13959" x2="19.4657" y2="38.8498" gradientUnits="userSpaceOnUse">
<stop stop-color="white"/>
<stop offset="1" stop-color="white" stop-opacity="0"/>
</linearGradient>
<linearGradient id="paint19_linear" x1="8.51786" y1="3.12416" x2="8.51786" y2="17" gradientUnits="userSpaceOnUse">
<stop stop-color="white"/>
<stop offset="1" stop-color="white" stop-opacity="0"/>
</linearGradient>
<linearGradient id="paint20_linear" x1="19.4657" y1="7.13959" x2="19.4657" y2="38.8498" gradientUnits="userSpaceOnUse">
<stop stop-color="white"/>
<stop offset="1" stop-color="white" stop-opacity="0"/>
</linearGradient>
<linearGradient id="paint21_linear" x1="19.4657" y1="7.13959" x2="19.4657" y2="38.8498" gradientUnits="userSpaceOnUse">
<stop stop-color="white"/>
<stop offset="1" stop-color="white" stop-opacity="0"/>
</linearGradient>
<linearGradient id="paint22_linear" x1="8.01681" y1="2.94039" x2="8.01681" y2="16" gradientUnits="userSpaceOnUse">
<stop stop-color="white"/>
<stop offset="1" stop-color="white" stop-opacity="0"/>
</linearGradient>
</defs>
</svg>
