<svg width="1371" height="454" viewBox="0 0 1371 454" fill="none" xmlns="http://www.w3.org/2000/svg">
<rect x="383.103" y="344" width="33.8369" height="78.9528" fill="url(#paint0_linear)"/>
<rect x="424.459" y="397.888" width="32.5837" height="25.0644" fill="url(#paint1_linear)"/>
<rect x="343" y="372.824" width="32.5837" height="50.1288" fill="url(#paint2_linear)"/>
<path d="M1237 379.425C1237 368.697 1245.7 360 1256.42 360H1306.55C1317.28 360 1325.98 368.697 1325.98 379.425V379.425C1325.98 390.153 1317.28 398.85 1306.55 398.85H1256.42C1245.7 398.85 1237 390.153 1237 379.425V379.425Z" fill="url(#paint3_linear)"/>
<path d="M451 47.5C451 36.7304 459.73 28 470.5 28H616.5C627.27 28 636 36.7304 636 47.5V47.5C636 58.2696 627.27 67 616.5 67H470.5C459.73 67 451 58.2696 451 47.5V47.5Z" fill="url(#paint4_linear)"/>
<rect width="63" height="63" rx="31.5" transform="matrix(-1 -8.74228e-08 -8.74228e-08 1 648 391)" fill="url(#paint5_linear)"/>
<rect width="38.8498" height="38.8498" rx="19.4249" transform="matrix(-1 -8.74228e-08 -8.74228e-08 1 304.85 9)" fill="url(#paint6_linear)"/>
<rect x="1093.67" width="45" height="46.2066" transform="rotate(45 1093.67 0)" fill="url(#paint7_linear)"/>
<path d="M1141 301.021L1364.54 301.019" stroke="url(#paint8_linear)" stroke-width="11" stroke-miterlimit="16" stroke-dasharray="4 4"/>
<path d="M3.99997 171.5L138.998 171.499" stroke="url(#paint9_linear)" stroke-width="7" stroke-miterlimit="16" stroke-dasharray="4 4"/>
<defs>
<linearGradient id="paint0_linear" x1="400.057" y1="358.509" x2="400.057" y2="422.953" gradientUnits="userSpaceOnUse">
<stop stop-color="white"/>
<stop offset="1" stop-color="white" stop-opacity="0"/>
</linearGradient>
<linearGradient id="paint1_linear" x1="440.785" y1="402.494" x2="440.785" y2="422.953" gradientUnits="userSpaceOnUse">
<stop stop-color="white"/>
<stop offset="1" stop-color="white" stop-opacity="0"/>
</linearGradient>
<linearGradient id="paint2_linear" x1="359.326" y1="382.036" x2="359.326" y2="422.952" gradientUnits="userSpaceOnUse">
<stop stop-color="white"/>
<stop offset="1" stop-color="white" stop-opacity="0"/>
</linearGradient>
<linearGradient id="paint3_linear" x1="1281.58" y1="367.14" x2="1281.58" y2="398.85" gradientUnits="userSpaceOnUse">
<stop stop-color="white"/>
<stop offset="1" stop-color="white" stop-opacity="0"/>
</linearGradient>
<linearGradient id="paint4_linear" x1="543.694" y1="35.1672" x2="543.694" y2="67" gradientUnits="userSpaceOnUse">
<stop stop-color="white"/>
<stop offset="1" stop-color="white" stop-opacity="0"/>
</linearGradient>
<linearGradient id="paint5_linear" x1="31.5662" y1="11.5778" x2="31.5662" y2="63" gradientUnits="userSpaceOnUse">
<stop stop-color="white"/>
<stop offset="1" stop-color="white" stop-opacity="0"/>
</linearGradient>
<linearGradient id="paint6_linear" x1="19.4657" y1="7.13959" x2="19.4657" y2="38.8498" gradientUnits="userSpaceOnUse">
<stop stop-color="white"/>
<stop offset="1" stop-color="white" stop-opacity="0"/>
</linearGradient>
<linearGradient id="paint7_linear" x1="1116.22" y1="8.49158" x2="1116.22" y2="46.2066" gradientUnits="userSpaceOnUse">
<stop stop-color="white"/>
<stop offset="1" stop-color="white" stop-opacity="0"/>
</linearGradient>
<linearGradient id="paint8_linear" x1="1288.23" y1="265.793" x2="1197" y2="357.023" gradientUnits="userSpaceOnUse">
<stop stop-color="white"/>
<stop offset="1" stop-color="white" stop-opacity="0"/>
</linearGradient>
<linearGradient id="paint9_linear" x1="92.9152" y1="150.226" x2="37.8203" y2="205.32" gradientUnits="userSpaceOnUse">
<stop stop-color="white"/>
<stop offset="1" stop-color="white" stop-opacity="0"/>
</linearGradient>
</defs>
</svg>
